<svg xmlns="http://www.w3.org/2000/svg" width="20" height="20" fill="none"><path fill="#FE0000" d="M17.059 1.597h-1.681v1.68c0 .336-.28.56-.56.56a.56.56 0 0 1-.56-.56v-1.68H5.294v1.68a.561.561 0 0 1-1.12 0v-1.68H2.493c-.84 0-1.457.728-1.457 1.68v2.017h17.928V3.277c0-.952-1.009-1.68-1.905-1.68M1.036 6.47v10.252c0 1.008.617 1.68 1.513 1.68h14.566c.896 0 1.905-.728 1.905-1.68V6.47zm4.986 9.411H4.678a.44.44 0 0 1-.448-.448v-1.4c0-.225.168-.449.448-.449h1.4c.224 0 .448.168.448.449v1.4c-.056.28-.224.448-.504.448m0-5.042H4.678a.44.44 0 0 1-.448-.448v-1.4c0-.224.168-.449.448-.449h1.4c.224 0 .448.169.448.449v1.4c-.056.28-.224.448-.504.448m4.482 5.042h-1.4a.44.44 0 0 1-.449-.448v-1.4c0-.225.168-.449.448-.449h1.401c.224 0 .448.168.448.449v1.4c0 .28-.168.448-.448.448m0-5.042h-1.4a.44.44 0 0 1-.449-.448v-1.4c0-.224.168-.449.448-.449h1.401c.224 0 .448.169.448.449v1.4c0 .28-.168.448-.448.448m4.482 5.042h-1.4a.44.44 0 0 1-.449-.448v-1.4c0-.225.168-.449.448-.449h1.4c.225 0 .449.168.449.449v1.4c0 .28-.168.448-.448.448m0-5.042h-1.4a.44.44 0 0 1-.449-.448v-1.4c0-.224.168-.449.448-.449h1.4c.225 0 .449.169.449.449v1.4c0 .28-.168.448-.448.448"/></svg>