<svg xmlns="http://www.w3.org/2000/svg" width="24" height="24" fill="none"><path fill="#fff" d="M20.558 15.714c-.052-.042-3.857-2.766-4.902-2.57-.498.087-.783.425-1.355 1.101-.092.11-.313.37-.485.557a8.728 8.728 0 0 1-5.095-4.44 8 8 0 0 1-.43-1.048c.188-.171.45-.391.563-.485.678-.565 1.019-.848 1.107-1.345.18-1.028-2.56-4.834-2.589-4.868A1.46 1.46 0 0 0 6.282 2C5.172 2 2 6.087 2 6.775c0 .04.058 4.106 5.106 9.206 5.129 5.008 9.222 5.066 9.262 5.066.693 0 4.807-3.15 4.807-4.254a1.44 1.44 0 0 0-.617-1.08"/></svg>