<svg width="20" height="20" viewBox="0 0 20 20" fill="none" xmlns="http://www.w3.org/2000/svg">
<path fill-rule="evenodd" clip-rule="evenodd" d="M0.714347 0.714286C1.10884 0.319797 1.74843 0.319795 2.14292 0.714285L19.2858 17.8571C19.6802 18.2516 19.6802 18.8912 19.2858 19.2857C18.8913 19.6802 18.2517 19.6802 17.8572 19.2857L0.714347 2.14286C0.319858 1.74837 0.319858 1.10878 0.714347 0.714286Z" fill="black"/>
<path fill-rule="evenodd" clip-rule="evenodd" d="M19.2857 0.714286C18.8912 0.319797 18.2516 0.319795 17.8571 0.714285L0.714304 17.8571C0.319815 18.2516 0.319815 18.8912 0.714303 19.2857C1.10879 19.6802 1.74838 19.6802 2.14287 19.2857L19.2857 2.14286C19.6802 1.74837 19.6802 1.10878 19.2857 0.714286Z" fill="black"/>
</svg>
