<svg xmlns="http://www.w3.org/2000/svg" width="18" height="14" fill="none"><path fill="#E30000" d="M16.071 3.333h-.642c-.171 0-.334.07-.455.196a.68.68 0 0 0-.188.471v2h-1.929V4.667c0-.354-.135-.693-.376-.943a1.26 1.26 0 0 0-.91-.39H9V2h2.571c.171 0 .334-.07.455-.195a.68.68 0 0 0 .188-.472V.667a.68.68 0 0 0-.188-.472.63.63 0 0 0-.455-.195H4.5c-.17 0-.334.07-.455.195a.68.68 0 0 0-.188.472v.666a.68.68 0 0 0 .188.472C4.166 1.93 4.33 2 4.5 2h2.571v1.333H4.5c-.341 0-.668.14-.91.39-.24.25-.376.59-.376.944v2.666H1.93v-2a.68.68 0 0 0-.189-.471.63.63 0 0 0-.454-.195H.643c-.17 0-.334.07-.455.195A.68.68 0 0 0 0 5.333v6a.68.68 0 0 0 .188.472c.12.125.284.195.455.195h.643c.17 0 .334-.07.454-.195a.68.68 0 0 0 .189-.472v-2h1.285v1.728c0 .19.04.378.115.551s.186.328.324.453l1.77 1.605c.234.213.534.33.846.33h5.302c.341 0 .668-.14.91-.39.24-.25.376-.59.376-.943v-2h1.929v2c0 .177.067.346.188.471.12.125.284.195.455.195h.642c.512 0 1.002-.21 1.364-.585s.565-.884.565-1.415v-6c0-.53-.203-1.039-.565-1.414a1.9 1.9 0 0 0-1.364-.586m-5.893 5.704-1.286 2c-.197.306-.535.296-.535.296v-2H7.071a.63.63 0 0 1-.33-.094.66.66 0 0 1-.236-.258.69.69 0 0 1 .032-.684l1.285-2C8.02 5.99 8.357 6 8.357 6v2h1.286c.116 0 .23.033.33.095s.182.15.237.257a.69.69 0 0 1-.032.685"/></svg>