<svg width="26" height="26" viewBox="0 0 26 26" fill="none" xmlns="http://www.w3.org/2000/svg">
<path fill-rule="evenodd" clip-rule="evenodd" d="M0.928675 0.928433C1.44151 0.415594 2.27299 0.415595 2.78583 0.928433L25.0716 23.2143C25.5845 23.7271 25.5845 24.5586 25.0716 25.0714C24.5588 25.5843 23.7273 25.5843 23.2145 25.0714L0.928675 2.78559C0.415838 2.27275 0.415837 1.44127 0.928675 0.928433Z" fill="black"/>
<path fill-rule="evenodd" clip-rule="evenodd" d="M25.0714 0.928433C24.5586 0.415594 23.7271 0.415595 23.2143 0.928433L0.928479 23.2143C0.415641 23.7271 0.415641 24.5586 0.928479 25.0714C1.44132 25.5843 2.27279 25.5843 2.78563 25.0714L25.0714 2.78559C25.5843 2.27275 25.5843 1.44127 25.0714 0.928433Z" fill="black"/>
</svg>
