<svg xmlns="http://www.w3.org/2000/svg" width="20" height="20" fill="none"><path fill="#7E7E7E" d="M9.997 19.999q-3.6-.002-7.197.001c-.646 0-1.232-.173-1.74-.574C.345 18.859 0 18.11 0 17.199V5.807c0-1.005.003-2.009 0-3.014-.002-.641.175-1.224.574-1.728C1.129.363 1.863.009 2.758.007q2.69-.005 5.377 0c.474 0 .822.267.929.701a.904.904 0 0 1-.868 1.117H2.788a.95.95 0 0 0-.656.229.92.92 0 0 0-.312.727v14.426c0 .586.387.972.973.972h14.415c.577 0 .966-.39.966-.968v-5.398c0-.443.335-.834.759-.892a.915.915 0 0 1 1.06.955c0 1.781-.005 3.563.002 5.344a2.744 2.744 0 0 1-2.053 2.694 3 3 0 0 1-.758.085z"/><path fill="#7E7E7E" d="M16.852 1.82h-3.16c-.487 0-.841-.273-.947-.722-.125-.537.302-1.094.853-1.096q2.763-.004 5.525 0c.478 0 .873.413.873.904v5.471a.904.904 0 0 1-.886.892c-.474.019-.905-.352-.923-.826-.019-.528-.01-1.057-.01-1.586q-.002-.81 0-1.618v-.103l-.036-.028c-.025.036-.046.077-.076.108L8.878 12.41c-.325.325-.719.404-1.093.222a.91.91 0 0 1-.274-1.437q.05-.055.104-.107l9.169-9.167c.027-.028.063-.045.096-.067z"/></svg>