<svg xmlns="http://www.w3.org/2000/svg" width="28" height="36" fill="none"><path fill="#000" d="M14.528.393c.726.552 1.357 1.217 2.109 1.742 1.666 1.163 3.48 1.94 5.493 2.267 1.449.236 2.904.185 4.36.195.742.005 1.136.4 1.137 1.15 0 4.09-.011 8.179.003 12.269.013 3.448-.93 6.589-2.939 9.4-1.2 1.677-2.667 3.088-4.298 4.338-1.857 1.424-3.854 2.64-5.836 3.878-.015.01-.019.037-.028.056h-.345v-8.329c.609 0 1.214-.058 1.808-.183 1.98-.418 3.683-1.344 5.043-2.856 2.08-2.314 2.855-5.027 2.281-8.071-.463-2.453-1.778-4.409-3.826-5.849-1.588-1.116-3.369-1.65-5.306-1.679V.393h.346z"/><path fill="#000" d="m14.184.393-.001 8.328.001.025c-1.149-.008-2.268.177-3.326.619-3.45 1.44-5.465 4.017-5.911 7.73-.301 2.509.399 4.79 1.989 6.749 1.857 2.288 4.291 3.45 7.248 3.489l-.001.025v8.328h-.206c-1.012-.514-1.926-1.189-2.885-1.789-1.9-1.189-3.713-2.491-5.319-4.066-2.434-2.386-4.094-5.205-4.742-8.576a16.4 16.4 0 0 1-.29-3.075V5.777c0-.779.405-1.176 1.192-1.18 1.182-.005 2.366.047 3.546-.071a12.7 12.7 0 0 0 3.956-1.062 13.3 13.3 0 0 0 3.8-2.563c.205-.196.432-.36.673-.508z"/><path fill="#fff" d="M14.183 8.721c1.936.03 3.718.563 5.306 1.68 2.047 1.44 3.364 3.395 3.826 5.848.573 3.044-.201 5.757-2.282 8.071-1.36 1.512-3.062 2.438-5.043 2.856-.593.125-1.199.183-1.808.183l.002-.025-.011-5.742.08-.102 3.245-3.225c.52-.518 1.044-1.033 1.554-1.56.333-.346.399-.786.21-1.172a1.06 1.06 0 0 0-1.07-.593c-.305.028-.522.21-.729.415q-1.637 1.621-3.276 3.242l-.004-9.85-.002-.025z"/><path fill="#fff" d="m14.173 21.592.011 5.742c-2.957-.038-5.391-1.2-7.249-3.49-1.59-1.959-2.29-4.24-1.989-6.747.447-3.714 2.462-6.291 5.91-7.731 1.06-.442 2.179-.627 3.328-.619l.003 9.85-.008.061c-.27.264-.555.516-.806.798-.178.202-.281.172-.456-.006-.683-.697-1.384-1.376-2.075-2.065-.296-.293-.632-.458-1.055-.338-.794.225-1.028 1.139-.433 1.747.891.911 1.8 1.805 2.7 2.706.908.908 1.16.919 2.118.093z"/><path fill="#FE0000" d="m14.18 18.657.008-.06q1.639-1.62 3.276-3.243c.207-.204.424-.387.729-.415.46-.041.873.19 1.07.593.188.386.123.826-.21 1.171-.51.53-1.034 1.043-1.555 1.561q-1.621 1.613-3.245 3.225c-.094-.12-.068-.261-.069-.396z"/><path fill="#FE0000" d="M14.18 18.657q-.001 1.218.004 2.436c0 .135-.025.276.07.396q-.042.052-.08.102c-.959.826-1.21.815-2.118-.093-.901-.901-1.81-1.795-2.7-2.706-.595-.609-.362-1.522.432-1.747.423-.12.76.045 1.055.338.692.689 1.393 1.368 2.075 2.065.175.179.278.208.457.006.25-.282.536-.533.806-.798z"/></svg>