<svg xmlns="http://www.w3.org/2000/svg" width="22" height="40" fill="none"><path fill="#000" d="M16.36 34.218v4.358c0 .15.006.303-.015.45-.095.662-.519.837-1.055.426a233 233 0 0 1-3.162-2.459c-1.156-.917-1.142-.916-2.225.068-.852.775-1.727 1.523-2.59 2.286-.228.202-.46.426-.795.29-.362-.146-.362-.487-.362-.809q-.001-4.257 0-8.516c0-.15-.012-.301 0-.45.025-.31-.126-.483-.387-.632-2.9-1.655-4.65-4.14-5.289-7.408-.843-4.309 1.295-8.94 5.13-11.08.405-.227.558-.478.554-.941-.02-2.806-.01-5.611-.01-8.416 0-.167-.003-.334.005-.501.012-.259.064-.508.326-.632.262-.123.485-.01.692.152l2.33 1.814c.554.43 1.118.847 1.66 1.291.24.196.406.199.643-.013 1.057-.945 2.129-1.874 3.198-2.807.282-.245.536-.642.978-.435.439.207.371.667.371 1.063.003 2.922.01 5.845-.006 8.767-.002.44.119.707.508.974 2.638 1.806 4.312 4.271 4.7 7.47.538 4.414-1.2 7.834-4.798 10.354-.3.21-.412.423-.409.776.015 1.52.006 3.039.006 4.559zM1.401 19.928c-.089 5.26 4.22 9.582 9.462 9.627 5.364.045 9.701-4.232 9.716-9.554.015-5.363-4.242-9.665-9.595-9.677-5.26-.012-9.65 4.258-9.583 9.605m13.805-9.807V1.923c-1.104.964-2.154 1.865-3.186 2.789-.353.316-.647.316-1.011.025-1.098-.873-2.208-1.728-3.319-2.584-.124-.095-.222-.253-.417-.245v8.01c2.686-.952 5.31-.879 7.933.203M7.236 37.994c1.136-.992 2.176-1.88 3.19-2.796.384-.347.697-.347 1.094-.027.934.755 1.893 1.481 2.84 2.218.27.21.543.416.872.667V29.79c-.078.015-.145.017-.203.04-2.469.985-4.964 1.074-7.483.217-.411-.14-.307.137-.307.324q-.004 2.88-.002 5.76z"/><path fill="#000" d="M1.402 19.929c-.067-5.346 4.321-9.617 9.583-9.605 5.353.012 9.61 4.314 9.595 9.677-.015 5.32-4.352 9.598-9.717 9.554-5.24-.045-9.55-4.367-9.46-9.626m17.054.037c-.005-4.142-3.347-7.504-7.466-7.509-4.154-.006-7.484 3.346-7.482 7.532.002 4.11 3.383 7.45 7.53 7.435 4.054-.014 7.422-3.4 7.418-7.458"/><path fill="#FE0000" d="M8.155 23.474c.096-.583.196-1.259.32-1.93.054-.293-.018-.503-.234-.708-.424-.401-.822-.83-1.232-1.245-.192-.195-.373-.39-.268-.699.104-.306.357-.357.633-.396.593-.085 1.183-.196 1.778-.271.23-.03.349-.127.44-.332.264-.594.55-1.177.826-1.765.11-.235.235-.44.54-.446.33-.008.464.21.582.462.267.573.546 1.141.802 1.72.098.22.218.33.473.359.612.07 1.22.186 1.828.28.26.04.484.12.57.407.078.263-.046.45-.215.624-.41.417-.798.855-1.233 1.243-.29.258-.348.528-.278.885.113.571.204 1.148.29 1.725.04.263.073.536-.199.723-.271.186-.503.06-.742-.074-.48-.27-.97-.519-1.439-.807-.286-.175-.52-.194-.817-.01-.509.316-1.04.599-1.573.873-.508.263-.868.032-.852-.618m5.424-3.898-.093-.157c-.377-.063-.752-.159-1.132-.181-.445-.026-.695-.243-.856-.637-.14-.345-.318-.675-.527-1.107-.222.461-.408.81-.56 1.173-.143.342-.365.526-.745.563-.406.039-.807.13-1.398.23.408.371.71.652 1.018.924.288.253.402.539.308.932-.098.409-.132.833-.196 1.25l.06.14c1.016-.995 2.033-.961 3.118.058-.091-.613-.123-1.03-.222-1.428-.1-.413.022-.712.328-.972.303-.258.598-.525.896-.788z"/><path fill="#FE0000" d="M14.49 19.184c-.404.358-.802.72-1.211 1.073-.413.355-.582.762-.443 1.324.132.544.176 1.11.3 1.946-1.465-1.387-2.842-1.435-4.214-.08l-.081-.19c.084-.569.131-1.146.264-1.703.129-.537-.027-.926-.416-1.27-.417-.37-.825-.753-1.376-1.258.797-.136 1.34-.26 1.89-.313.513-.05.814-.3 1.007-.767.205-.495.457-.97.756-1.598.282.589.523 1.038.713 1.508.216.539.554.832 1.157.868.512.03 1.02.16 1.53.247l.125.213z"/></svg>