<svg xmlns="http://www.w3.org/2000/svg" width="36" height="36" fill="none"><path fill="#000" d="M18.205 25.258c-.267-.063-.444-.205-.436-.498.053-2.102-.275-4.243.59-6.265 1.353-3.16 3.722-5.047 7.164-5.507.569-.076.647-.283.628-.777-.13-3.541-3.08-6.445-6.816-6.642-1.024-.054-2.056 0-3.083-.027-.382-.01-.451.11-.373.458.599 2.695.26 5.424.257 8.138 0 .983-.885 1.724-1.976 1.8-.547.037-.851.074-.873.77-.026.779-.532 1.36-1.342 1.535-.426.092-.585.293-.497.692.306 1.383-.379 2.177-1.678 2.588.614.696 1.747.642 1.727 1.923-.02 1.244-1.136 1.162-1.652 1.788.534.622 1.676.57 1.652 1.853-.023 1.244-1.132 1.16-1.646 1.773.057.187.241.255.384.3 1.123.357 1.36 1.162 1.223 2.215-.041.306-.118.556-.316.786-.781.905-1.564 1.806-2.33 2.724-.372.449-.69.45-1.065 0Q6.58 33.478 5.369 32.11c-.242-.274-.238-.566-.238-.882 0-4.039-.006-8.075.01-12.114 0-.478-.026-.768-.616-.905-.819-.187-1.25-.833-1.278-1.665-.014-.42-.082-.576-.56-.583-1.76-.028-2.556-.839-2.529-2.573.036-2.137-.176-4.282.12-6.412.463-3.33 2.953-5.912 6.33-6.638 3.135-.673 6.597.759 8.296 3.542.398.65.813.793 1.5.795 1.607 0 3.224-.158 4.815.27 3.266.877 5.699 3.874 5.791 7.242.016.544.171.74.728.796 3.996.401 7.493 3.92 7.636 7.894.142 3.935.083 7.878.065 11.82-.006 1.497-1.02 2.537-2.547 2.554q-6.28.07-12.556.004c-1.59-.016-2.56-1.108-2.57-2.68-.007-.898.005-1.8-.005-2.7-.004-.344.034-.638.444-.716.377.105.457.378.451.731-.014.802-.006 1.605-.004 2.407.002 1.46.57 2.057 2.022 2.06 3.962.01 7.926.013 11.888 0 1.417-.003 1.98-.59 1.982-2.014.004-3.477 0-6.952.004-10.429 0-.856-.057-1.704-.334-2.515-1.036-3.046-3.151-4.887-6.326-5.511-.262-.051-.733-.213-.79.077-.117.609-.076 1.256-.046 1.884.017.375.44.326.675.463.916.54 1.389 1.564 1.13 2.54-.289 1.093-1.19 1.777-2.306 1.758a2.27 2.27 0 0 1-2.182-1.724c-.261-1.044.178-2.122 1.166-2.565.516-.232.704-.505.625-1.035a2.5 2.5 0 0 1 0-.728c.097-.624-.135-.786-.759-.7-3.216.437-6.081 3.197-6.611 6.377-.234 1.404-.095 2.812-.132 4.22-.01.365-.027.687-.451.804zM11.904 5.542c.296.628.427 1.168.52 1.716.147.876-.391 1.591-1.266 1.603-1.982.027-3.966.03-5.948-.002-.829-.014-1.256-.497-1.248-1.312.017-1.537.732-2.72 2.03-3.497 1.408-.842 2.92-.88 4.31-.006.75.472 1.468.698 2.324.618.316-.029.637.01.953-.01.204-.011.495.12.593-.118.09-.215-.153-.394-.28-.556C12.277 1.94 10.178.992 7.554 1.137 4.25 1.32 1.222 4.33 1.149 7.619c-.045 1.993-.021 3.99-.017 5.985 0 1.053.394 1.431 1.475 1.431q5.581.006 11.163 0c1.048 0 1.501-.456 1.505-1.515.006-1.825-.004-3.649 0-5.474 0-.714-.184-1.392-.353-2.075-.071-.287-.222-.447-.566-.437-.78.026-1.562.008-2.454.008zm-3.87 20.52v5.615c0 .584-.004 1.167.003 1.752.002.187-.04.429.16.526.249.123.323-.152.437-.282a82 82 0 0 0 1.617-1.888c.552-.667.418-1.319-.341-1.751-.403-.23-.813-.449-1.2-.7-.49-.318-.486-.617.018-.929.475-.296.976-.554 1.454-.844.532-.322.522-.696-.02-1.02-.458-.275-.931-.529-1.389-.81-.58-.358-.575-.641.018-1.002.457-.279.932-.528 1.391-.805.528-.32.52-.696-.021-1.02-.418-.25-.848-.482-1.268-.727-.746-.435-.74-.714.024-1.163.42-.245.834-.507 1.271-.721.287-.14.353-.33.361-.63.032-1.313.042-1.313-1.285-1.313-.196 0-.394.024-.587-.004-.514-.074-.657.125-.651.638.027 2.358.011 4.715.011 7.075zM8.2 7.916c.856 0 1.714-.04 2.565.014.671.043.777-.236.699-.81-.222-1.62-1.737-2.833-3.495-2.763-1.6.065-3.036 1.476-3.122 3.035-.026.454.198.53.57.528.929-.01 1.857-.002 2.785-.002zM7.025 32.56c.035-.111.076-.177.076-.244.004-4.5-.004-9 .014-13.5 0-.498-.275-.441-.604-.472-.477-.045-.487.208-.487.565.008 3.867.041 7.736-.02 11.603-.013.925.395 1.477 1.02 2.048m1.254-16.597c-1.148 0-2.298-.008-3.446.005-.226.002-.542-.138-.66.135-.127.294-.045.626.138.903.224.34.573.442.956.425a69 69 0 0 1 6.003-.006c.212.008.451-.025.637-.119.426-.209.554-.616.505-1.047-.06-.517-.497-.279-.76-.285-1.124-.027-2.249-.012-3.373-.012m18.323 3.752c.805 0 1.454-.644 1.433-1.42-.022-.743-.672-1.371-1.423-1.373a1.396 1.396 0 0 0-1.411 1.433c.016.782.61 1.36 1.4 1.36z"/><path fill="#FE0000" d="M18.205 25.258c.424-.117.444-.441.451-.804.036-1.406-.104-2.816.132-4.22.53-3.18 3.395-5.94 6.611-6.377.624-.086.854.076.76.7-.038.238-.036.49 0 .728.08.53-.11.803-.626 1.035-.987.445-1.427 1.521-1.166 2.565a2.27 2.27 0 0 0 2.182 1.723c1.119.02 2.018-.664 2.306-1.756.26-.977-.214-2.001-1.13-2.541-.234-.139-.656-.088-.675-.463-.032-.628-.073-1.275.047-1.884.057-.29.528-.128.789-.078 3.173.625 5.288 2.465 6.327 5.512.276.813.335 1.661.333 2.515-.004 3.477 0 6.952-.004 10.43 0 1.423-.563 2.01-1.982 2.014q-5.944.017-11.888 0c-1.452-.004-2.02-.599-2.021-2.061 0-.802-.01-1.605.003-2.407.006-.353-.074-.626-.451-.731v-3.902zm8.393 7.003c2.553-.002 4.565-1.988 4.58-4.52.014-2.565-2.013-4.578-4.601-4.568-2.538.01-4.555 2.028-4.553 4.552.002 2.511 2.045 4.538 4.574 4.534zM11.904 5.542c.892 0 1.673.018 2.454-.008.344-.01.495.148.566.437.168.683.355 1.361.353 2.075-.006 1.825.004 3.649 0 5.474-.004 1.059-.457 1.515-1.505 1.515q-5.581.006-11.163 0c-1.08 0-1.473-.378-1.475-1.431-.004-1.995-.026-3.99.017-5.985.073-3.286 3.099-6.299 6.406-6.482 2.624-.145 4.723.803 6.336 2.841.128.162.371.341.281.556-.1.238-.388.107-.593.119-.318.02-.637-.02-.953.01-.856.08-1.574-.147-2.324-.619-1.39-.875-2.9-.836-4.31.006-1.299.776-2.013 1.958-2.03 3.497-.01.813.42 1.299 1.248 1.312q2.974.045 5.948.002c.875-.012 1.41-.727 1.265-1.603a6.2 6.2 0 0 0-.52-1.716z"/><path fill="#000" d="M26.598 32.26c-2.53.003-4.572-2.022-4.574-4.533-.002-2.524 2.015-4.542 4.553-4.552 2.588-.01 4.615 2 4.601 4.567-.013 2.533-2.025 4.519-4.58 4.52zm.05-8.205c-2.061-.016-3.72 1.58-3.74 3.6-.019 2.076 1.608 3.72 3.688 3.726 2.057.006 3.684-1.597 3.695-3.639.012-2.051-1.59-3.672-3.644-3.687"/><path fill="#000" d="M26.647 24.055c2.055.015 3.656 1.634 3.645 3.687-.012 2.042-1.64 3.645-3.696 3.64-2.08-.007-3.709-1.653-3.687-3.728.02-2.018 1.678-3.615 3.738-3.6"/></svg>