<svg xmlns="http://www.w3.org/2000/svg" width="36" height="36" fill="none"><path fill="#FE0000" d="M15.96 35.585c-.535-.257-.94-.626-.94-1.262 0-.328.053-.667.149-.98.158-.52.077-.92-.385-1.247-.23-.163-.423-.387-.615-.599a1.266 1.266 0 0 1 .683-2.113c.426-.086.858-.148 1.29-.198.195-.022.309-.1.39-.275.168-.363.355-.718.532-1.076.24-.486.63-.75 1.174-.75.544.001.932.268 1.172.755.167.338.339.674.497 1.016.094.203.217.314.462.335.42.036.84.108 1.255.194a1.263 1.263 0 0 1 .696 2.09c-.29.325-.61.623-.929.92-.159.148-.214.292-.164.513.086.38.133.766.197 1.15.103.628-.175 1.158-.751 1.433-.055.027-.145.002-.162.095h-.62c-.405-.205-.821-.39-1.21-.62-.306-.182-.56-.2-.873-.007-.39.24-.816.42-1.226.628h-.62zm.133-1.45c-.019.394.115.482.415.331q.537-.269 1.064-.557c.438-.242.87-.245 1.309-.011q.53.284 1.063.558c.108.055.217.139.35.041.13-.094.098-.223.08-.344a39 39 0 0 0-.182-1.083c-.098-.534.008-.996.425-1.375.296-.27.582-.554.86-.843.211-.22.16-.393-.14-.458a7 7 0 0 0-.78-.116c-.665-.066-1.268-.217-1.564-.918-.148-.347-.327-.68-.498-1.017-.05-.102-.105-.204-.247-.21-.16-.006-.22.104-.276.217-.19.379-.37.762-.564 1.138-.221.428-.58.664-1.059.724q-.578.076-1.156.169c-.122.02-.255.036-.304.183-.052.153.056.235.143.322.27.267.535.537.815.792.423.386.54.856.43 1.405-.074.37-.13.744-.184 1.052M.59 25.799c.266-.479.678-.699 1.22-.7.317 0 .53-.141.626-.457.044-.14.121-.272.198-.4.401-.666 1.356-.701 1.682 0 .275.591.63.851 1.274.94a.927.927 0 0 1 .5 1.622c-.485.432-.59.85-.452 1.461.154.685-.576 1.264-1.249 1.055-.498-.155-1.307-.156-1.792-.003-.677.214-1.401-.346-1.256-1.042.13-.622.075-1.103-.48-1.478-.12-.081-.182-.25-.272-.379zm2.862-.981c-.233.969-.824 1.367-1.744 1.363.779.532.996 1.205.67 2.088.744-.582 1.465-.575 2.202.026-.028-.477-.207-.848-.064-1.244.137-.377.525-.549.72-.891-1.28-.178-1.177-.177-1.784-1.342M7.411 31.381c.031-.172.078-.454.134-.735.038-.193.01-.348-.157-.485a6 6 0 0 1-.568-.55c-.285-.309-.384-.67-.247-1.079q.208-.628.862-.737c.226-.038.452-.106.678-.102.312.006.438-.173.543-.417a7 7 0 0 1 .284-.584c.21-.386.545-.596.978-.59.415.005.803.182.935.584.253.772.747 1.068 1.545 1.132.835.066 1.178 1.083.644 1.736-.115.142-.238.29-.388.388-.414.271-.447.633-.325 1.065.055.196.092.407.084.61-.033.775-.865 1.318-1.527.917-.694-.421-1.247-.432-1.95-.005-.72.44-1.562-.18-1.524-1.147zm.104-2.608c.375.512.887.754 1.059 1.266.173.517-.116 1.02-.106 1.551.512-.16.891-.576 1.439-.576.544 0 .925.415 1.414.566.103-.526-.32-.997-.094-1.534.213-.509.71-.761 1.008-1.195-.5-.176-1.056-.056-1.5-.374-.446-.32-.506-.896-.888-1.39-.292 1.239-1.043 1.808-2.332 1.685M29.953 28.805c.01.416-.143.718-.419.92-.545.396-.722.86-.503 1.525.146.446.017.895-.398 1.192-.42.302-.881.303-1.282.009-.545-.4-1.03-.375-1.568.002-.394.276-.844.297-1.255.007-.405-.287-.58-.702-.428-1.175.223-.69.03-1.185-.546-1.608-.376-.277-.46-.71-.323-1.15.14-.443.465-.738.934-.734.755.005 1.177-.345 1.412-1.042.144-.426.522-.643.968-.65s.84.19.984.618c.247.744.726 1.053 1.497 1.09.568.026.924.502.924.996zm-3.387-1.65c-.315.432-.385.989-.815 1.313-.44.332-1.007.214-1.511.388.319.428.829.67.997 1.185.166.512-.12 1.018-.09 1.645.97-.881 1.912-.8 2.9-.055-.478-1.207-.122-2.095.929-2.753-.574-.202-1.13-.083-1.575-.397-.452-.318-.507-.9-.835-1.326M35.882 26.112c.022.37-.165.644-.435.854-.353.273-.458.569-.348 1.028.173.726-.134 1.212-.744 1.357-.291.07-.556-.016-.781-.177-.402-.286-.771-.295-1.177 0-.243.175-.53.256-.846.158-.515-.161-.842-.608-.707-1.128.15-.573.05-.999-.441-1.36-.325-.24-.387-.622-.277-1.001.111-.383.38-.668.78-.677.64-.015.967-.314 1.225-.89.33-.736 1.376-.737 1.706-.003.259.578.594.848 1.225.897.523.042.817.455.821.942m-4.009 2.162c.752-.587 1.469-.582 2.22-.009-.346-.896-.068-1.561.677-2.103-.948.038-1.509-.408-1.761-1.307-.612 1.094-.37 1.077-1.83 1.337.78.517 1.04 1.187.693 2.08z"/><path fill="#000" d="M17.558 24.672c-.087.404-.233.533-.625.534-.954.004-1.907.007-2.86 0-.933-.007-1.616-.704-1.625-1.642q-.005-.537-.542-.537c-2.067 0-4.136-.031-6.202.011-1.305.028-1.845-.84-1.798-1.79.054-1.088-.063-2.183.057-3.27.207-1.883 1.177-3.26 2.837-4.16.08-.043.159-.088.255-.143-.811-.59-1.324-1.356-1.537-2.328-.441-2.017 1.096-4.131 3.15-4.34.667-.067 1.305.004 1.912.282.204.093.366.122.556-.028.142-.112.318-.18.499-.278-1.014-.79-1.581-1.795-1.54-3.1.032-1.019.434-1.86 1.174-2.549 1.467-1.364 3.773-1.23 5.139.299 1.25 1.399 1.308 3.87-.646 5.341.28.17.56.33.83.508.12.077.22.036.325 0a3.94 3.94 0 0 1 2.693.02c.13.047.224.042.342-.039.256-.172.527-.32.81-.489-1.008-.755-1.567-1.763-1.55-3.039a3.45 3.45 0 0 1 1.12-2.54C21.83-.016 24.144.077 25.5 1.587c1.314 1.462 1.344 3.897-.608 5.385.011.014.02.03.034.04.43.335.846.322 1.375.144 1.757-.595 3.692.326 4.409 2.021.174.415.097.632-.302.838-.375.041-.541-.18-.687-.49-.527-1.125-1.768-1.723-2.936-1.438-1.23.3-2.082 1.37-2.059 2.583a2.66 2.66 0 0 0 2.047 2.528c1.154.27 2.342-.28 2.91-1.375.166-.322.384-.467.738-.403.358.268.408.459.215.849-.282.565-.691 1.022-1.224 1.407.818.378 1.504.9 2.046 1.6.75.966 1.094 2.073 1.099 3.291q.003 1.395 0 2.79c-.002 1.063-.594 1.665-1.658 1.668-2.17.006-4.34.009-6.51-.006-.304-.002-.38.07-.376.374.018 1.185-.628 1.813-1.825 1.814q-1.308.001-2.618 0c-.425 0-.571-.123-.66-.535.066-.367.285-.51.656-.505.907.014 1.813.008 2.72.003.433-.002.696-.206.692-.593-.017-1.354.093-2.71-.055-4.06-.278-2.553-2.749-4.564-5.5-4.068-2.304.417-3.921 2.402-3.937 4.747-.007 1.08-.002 2.159 0 3.237.001.52.212.733.73.734.895.004 1.79.012 2.686 0 .37-.006.589.138.655.504zM8.79 21.954v.01c1.102 0 2.204-.006 3.305.006.25.002.375-.035.349-.328-.03-.319.002-.642-.009-.964-.038-1.093.131-2.143.631-3.126.062-.122.029-.213-.003-.322-.454-1.549-1.929-2.754-3.535-2.889-2.65-.223-4.547 1.954-4.52 4.104.013.986 0 1.974.002 2.96 0 .44.11.548.544.548q1.618.001 3.236 0zm18.85.021q1.618.002 3.237 0c.515 0 .617-.104.62-.63q.005-.568 0-1.136c-.01-.793.071-1.591-.044-2.375-.274-1.87-1.86-3.368-3.662-3.512-1.977-.16-3.685.938-4.345 2.782a.67.67 0 0 0 .03.58c.196.387.32.803.416 1.228.204.907.122 1.827.127 2.743 0 .245.043.33.314.327 1.102-.018 2.204-.008 3.307-.008zM18.26 8.311a3.016 3.016 0 0 0-3.047 2.984c-.016 1.639 1.335 3.016 2.97 3.03 1.703.013 3.067-1.308 3.082-2.988.015-1.657-1.333-3.015-3.004-3.026m-9.13-.278a2.585 2.585 0 0 0-2.62 2.573 2.616 2.616 0 0 0 2.585 2.657c1.433.017 2.64-1.167 2.655-2.604.015-1.436-1.167-2.62-2.62-2.626m13.7-1.482a2.557 2.557 0 0 0 2.566-2.547c.004-1.408-1.178-2.58-2.592-2.571-1.396.01-2.568 1.195-2.55 2.579A2.557 2.557 0 0 0 22.83 6.55zm-9.142 0a2.53 2.53 0 0 0 2.561-2.54 2.554 2.554 0 0 0-2.565-2.58c-1.388.004-2.544 1.153-2.549 2.535-.004 1.445 1.119 2.583 2.554 2.585m8.936 9.798c.581-1.226 1.468-2.097 2.68-2.672-.94-.682-1.473-1.561-1.59-2.668-.118-1.119.254-2.089.998-2.923-1.247-.657-2.89-.616-3.885.093 1.022.892 1.54 2.017 1.462 3.37-.08 1.359-.744 2.415-1.867 3.21.449.19.823.408 1.178.662.364.261.69.565 1.025.928zm-6.582-1.586c-2.375-1.665-2.466-4.85-.378-6.619-1.009-.615-2.443-.69-3.57-.208-.267.114-.307.19-.108.438 1.064 1.326 1.068 3.13.045 4.486-.234.31-.523.56-.84.826a5.5 5.5 0 0 1 1.58 1.074c.457.449.81.977 1.099 1.577.619-.692 1.32-1.215 2.172-1.574"/><path fill="#FE0000" d="m3.281 28.509 1.197.299h.598v-1.495l.598-1.496-1.495-.897-.599-.599-.598.3-.897.897-.897.598.598 1.197.299 1.495zM9.682 31.74l1.436.358h.718v-1.794l.718-1.795-1.795-1.077-.718-.718-.718.36-1.077 1.076-1.076.718.718 1.436.358 1.794zM17.997 34.61l1.915.48h.957v-2.394l.957-2.392-2.393-1.436-.957-.957-.957.478-1.436 1.436-1.735.778 1.256 2.093.48 2.393zM26.398 31.74l1.378.358h.689v-1.794l.69-1.795-1.724-1.077-.689-.718-.69.36-1.033 1.076-1.249.583.905 1.57.344 1.795zM32.836 28.788l1.225.32h.612v-1.596l.613-1.595-1.532-.958-.612-.638-.613.32-.919.957-1.11.518.804 1.396.306 1.595z"/></svg>