<svg xmlns="http://www.w3.org/2000/svg" width="32" height="32" fill="none"><g fill="#E30000" clip-path="url(#a)"><path d="m29.92 13.07-5.469-6.01a2.784 2.784 0 0 0-4.641 1.21 2.786 2.786 0 0 0-4.365 1.454 2.787 2.787 0 0 0-4.357 1.427L8.511 8.573a2.784 2.784 0 0 0-3.938 3.938l9.903 9.902-5.874.922a3.26 3.26 0 0 0-2.784 3.21c0 1.204.98 2.182 2.182 2.182h13.715a7.95 7.95 0 0 0 5.657-2.343l2.288-2.288a7.93 7.93 0 0 0 2.34-5.65 7.98 7.98 0 0 0-2.08-5.377m-1.289 9.998-2.288 2.288a6.5 6.5 0 0 1-4.628 1.917H8a.73.73 0 0 1-.727-.727 1.8 1.8 0 0 1 1.546-1.772l7.294-1.146a.728.728 0 0 0 .402-1.232L5.602 11.482a1.33 1.33 0 0 1 1.88-1.88l7.277 7.277a.728.728 0 1 0 1.027-1.03l-2.971-2.972a1.327 1.327 0 0 1 .008-1.88 1.327 1.327 0 0 1 1.872 0l2.974 2.973a.728.728 0 1 0 1.026-1.03l-1.517-1.517a1.33 1.33 0 0 1 .01-1.881 1.327 1.327 0 0 1 1.871 0l1.524 1.524.002.002.001.001.002.002.001.001h.002l.001.002a.726.726 0 0 0 1.014-1.043l-.063-.063a1.32 1.32 0 0 1-.388-.937c0-.353.137-.685.396-.944.518-.515 1.355-.513 1.848-.024l5.446 5.985a6.53 6.53 0 0 1 1.7 4.399c0 1.745-.679 3.386-1.914 4.62"/><path d="M12.503 7.859A6.56 6.56 0 0 0 6.545 4 6.553 6.553 0 0 0 0 10.546a6.56 6.56 0 0 0 3.859 5.959.73.73 0 0 0 .963-.364.73.73 0 0 0-.364-.963 5.1 5.1 0 0 1-3.003-4.632 5.097 5.097 0 0 1 5.09-5.091 5.1 5.1 0 0 1 4.633 3.003.727.727 0 1 0 1.325-.6"/></g><defs><clipPath id="a"><path fill="#fff" d="M0 0h32v32H0z"/></clipPath></defs></svg>