<svg width="15" height="20" viewBox="0 0 15 20" fill="none" xmlns="http://www.w3.org/2000/svg">
<path d="M7.42 6.888C9.3427 6.888 10.9387 7.4667 12.208 8.624C13.496 9.7627 14.14 11.368 14.14 13.44C14.14 15.4933 13.4493 17.0987 12.068 18.256C10.6867 19.4133 8.9973 19.992 7 19.992C5.376 19.992 3.948 19.6467 2.716 18.956C1.484 18.2467 0.5787 17.192 0 15.792L3.864 13.552C4.3493 14.9333 5.3947 15.624 7 15.624C7.8773 15.624 8.54 15.4187 8.988 15.008C9.436 14.5973 9.66 14.0747 9.66 13.44C9.66 12.8053 9.4453 12.2827 9.016 11.872C8.5867 11.4613 7.9613 11.256 7.14 11.256H1.008L1.82 0H13.16V4.2H6.02L5.824 6.888H7.42Z" fill="white"/>
</svg>
