<svg width="24" height="24" viewBox="0 0 24 24" fill="none" xmlns="http://www.w3.org/2000/svg">
<path d="M13.5043 13.768C13.0565 14.0666 12.5363 14.2244 12 14.2244C11.4637 14.2244 10.9436 14.0666 10.4957 13.768L3.11985 8.85064C3.07893 8.82335 3.03906 8.79491 3 8.76567V16.8233C3 17.7472 3.74971 18.4804 4.65702 18.4804H19.3429C20.2668 18.4804 21 17.7306 21 16.8233V8.76562C20.9608 8.79495 20.9209 8.82345 20.8799 8.85077L13.5043 13.768Z" fill="white"/>
<path d="M3.70488 7.97393L11.0808 12.8914C11.36 13.0775 11.68 13.1706 12 13.1706C12.32 13.1706 12.64 13.0775 12.9192 12.8914L20.2951 7.97393C20.7365 7.67985 21 7.18766 21 6.65645C21 5.74306 20.2569 5 19.3435 5H4.65646C3.7431 5.00003 3 5.74309 3 6.65733C3 7.18766 3.26353 7.67985 3.70488 7.97393Z" fill="white"/>
</svg>
