<svg xmlns="http://www.w3.org/2000/svg" width="24" height="23" fill="none"><path fill="#FE0000" d="M22.297 16.457c-.063-.05-4.599-3.319-5.844-3.084-.594.105-.934.51-1.615 1.322-.11.13-.374.445-.579.668a10.438 10.438 0 0 1-6.586-6.586c.224-.206.538-.47.672-.582.808-.678 1.214-1.018 1.32-1.614C9.88 5.347 6.612.781 6.578.74A1.74 1.74 0 0 0 5.279 0C3.955 0 .175 4.904.175 5.73c0 .048.069 4.928 6.086 11.048 6.114 6.01 10.993 6.08 11.04 6.08.827 0 5.73-3.781 5.73-5.106a1.74 1.74 0 0 0-.734-1.295"/></svg>