<svg width="12" height="12" viewBox="0 0 12 12" fill="none" xmlns="http://www.w3.org/2000/svg">
<path d="M11.614 8.63999C11.5812 8.61397 9.19998 6.89758 8.54638 7.02082C8.23441 7.07601 8.05599 7.28883 7.69802 7.71479C7.64039 7.78359 7.50202 7.94841 7.39438 8.06559C7.16815 7.99182 6.94748 7.90197 6.73402 7.79682C5.63221 7.26042 4.742 6.37019 4.2056 5.2684C4.10035 5.05497 4.01052 4.83427 3.9368 4.608C4.0544 4.5 4.2192 4.3616 4.2896 4.3024C4.7136 3.9464 4.9268 3.768 4.982 3.4552C5.0952 2.8072 3.38 0.4096 3.362 0.388002C3.28418 0.276827 3.18262 0.184345 3.06467 0.117241C2.94672 0.0501364 2.81533 0.0100918 2.68 0C1.9848 6.30029e-07 0 2.5748 0 3.0084C0 3.0336 0.0364002 5.5952 3.1952 8.8084C6.40522 11.9636 8.96642 12 8.99158 12C9.42559 12 12 10.0152 12 9.31998C11.99 9.18516 11.9502 9.05417 11.8835 8.93661C11.8167 8.81898 11.7247 8.71767 11.614 8.63999Z" fill="white"/>
</svg>
