<svg xmlns="http://www.w3.org/2000/svg" width="18" height="18" fill="none"><path fill="#E30000" d="M16.702 7.218a7.8 7.8 0 0 0-.995-2.404l.669-1.116-2.074-2.074-1.116.67a7.8 7.8 0 0 0-2.404-.996L10.467 0H7.533l-.315 1.298a7.8 7.8 0 0 0-2.404.995l-1.116-.669-2.074 2.074.67 1.116a7.8 7.8 0 0 0-.996 2.404L0 7.533v2.934l1.298.315c.197.856.53 1.662.995 2.404l-.669 1.116 2.074 2.074 1.116-.67a7.8 7.8 0 0 0 2.404.996L7.533 18h2.934l.315-1.298a7.8 7.8 0 0 0 2.404-.995l1.116.669 2.074-2.074-.67-1.116a7.8 7.8 0 0 0 .996-2.404L18 10.467V7.533zM9 14.8A5.807 5.807 0 0 1 3.2 9C3.2 5.801 5.8 3.2 9 3.2S14.8 5.8 14.8 9s-2.602 5.8-5.8 5.8"/><path fill="#E30000" d="m9.527 4.287-4.142 6.296h3.088v3.131l4.141-6.295H9.528z"/></svg>