<svg xmlns="http://www.w3.org/2000/svg" width="18" height="14" fill="none"><path fill="#FE0000" d="M16.07 3.813a.75.75 0 0 0-.197-.685 9 9 0 0 0-5.286-3.11c-.253-.057-.478.028-.675.2a.86.86 0 0 0-.31.656v2.482c0 .4.254.714.62.828.871.228 1.659.685 2.277 1.341a.8.8 0 0 0 .59.257c.141 0 .282-.029.422-.114l2.11-1.256a.76.76 0 0 0 .45-.6M11.91 6.039c-.085-.086-.197-.115-.31-.057-.815.313-3.487 1.398-3.852 1.769a1.81 1.81 0 0 0 0 2.51c.675.686 1.8.686 2.474 0 .366-.37 1.435-3.081 1.744-3.909a.26.26 0 0 0-.056-.313M9.293 9.292a.387.387 0 0 1-.534 0 .4.4 0 0 1 0-.542.387.387 0 0 1 .534 0c.141.142.141.37 0 .542m-.871-5.936V.874a.86.86 0 0 0-.31-.657.86.86 0 0 0-.674-.2A9 9 0 0 0 2.15 3.129c-.169.2-.253.457-.197.685a.92.92 0 0 0 .422.6l2.11 1.255c.14.085.28.114.42.114a.8.8 0 0 0 .591-.257 4.9 4.9 0 0 1 2.278-1.341c.394-.086.647-.428.647-.828m9.054 2.54a.83.83 0 0 0-.506-.514.86.86 0 0 0-.703.057L14.13 6.723a.85.85 0 0 0-.394.97 4.83 4.83 0 0 1 0 2.683.85.85 0 0 0 .394.97l2.109 1.256a.87.87 0 0 0 .703.057.9.9 0 0 0 .506-.514 9.35 9.35 0 0 0 .028-6.25m-13.581.827L1.757 5.468a.87.87 0 0 0-.703-.057.9.9 0 0 0-.506.513 9.1 9.1 0 0 0 0 6.221.9.9 0 0 0 .506.514.86.86 0 0 0 .703-.057l2.138-1.227a.85.85 0 0 0 .393-.97 4.83 4.83 0 0 1 0-2.683c.085-.428-.084-.827-.393-.999m3.093 5.108c-.169 0-.282.114-.282.286 0 .17.113.285.282.285h4.077c.169 0 .281-.114.281-.285 0-.172-.112-.286-.281-.286zm5.005 1.598H6.032c-.17 0-.282.114-.282.286 0 .17.113.285.282.285h5.961c.169 0 .281-.114.281-.285a.284.284 0 0 0-.281-.286"/></svg>