<svg xmlns="http://www.w3.org/2000/svg" width="20" height="20" fill="none"><path fill="#7E7E7E" d="M12.964 7.036c.277-1.12.394-2.268.354-3.43-.022-.618-.083-1.229-.274-1.818-.37-1.138-1.482-1.912-2.53-1.772C9.373.17 8.508 1.15 8.537 2.452c.057 2.515-1.742 4.89-4.402 5.307-.965.151-1.967.051-2.952.06-.937.01-1.18.255-1.18 1.236q-.004 4.849 0 9.697c0 .94.28 1.242 1.197 1.243q7.286.01 14.572 0c1.28-.002 2.175-.756 2.46-2.04.56-2.517 1.122-5.034 1.67-7.554.433-1.986-.59-3.293-2.566-3.298q-2.093-.004-4.184-.007c-.046 0-.092-.028-.188-.06M10.976 18.07c-1.588 0-3.176-.017-4.764.011-.46.008-.607-.106-.602-.602.027-2.444.052-4.889-.01-7.331-.02-.8.191-1.22.912-1.554 2.214-1.025 3.41-2.798 3.457-5.329.015-.742.335-1.209.883-1.191.647.02.884.513 1.002 1.074.301 1.419.12 2.789-.438 4.112-.455 1.079-.373 1.208.8 1.21 1.685.001 3.369-.017 5.053.005.897.012 1.162.376.972 1.255-.541 2.52-1.096 5.038-1.632 7.56-.123.584-.432.8-1.014.79-1.54-.03-3.08-.01-4.62-.01zm-7.05-4.18h-.02v2.663c0 1.544 0 1.52-1.498 1.534-.484.005-.61-.145-.605-.622.021-2.071.01-4.143.01-6.215 0-1.582 0-1.558 1.549-1.554.5.001.585.189.575.642-.028 1.183-.01 2.367-.01 3.551"/></svg>