<svg xmlns="http://www.w3.org/2000/svg" width="20" height="20" fill="none"><path fill="#7E7E7E" d="M7.036 12.964a12.4 12.4 0 0 0-.353 3.43c.02.618.082 1.229.273 1.818.37 1.138 1.482 1.912 2.53 1.772 1.142-.153 2.007-1.133 1.978-2.436-.057-2.515 1.742-4.89 4.402-5.307.965-.151 1.967-.051 2.952-.06.937-.01 1.18-.255 1.18-1.236q.004-4.849 0-9.697c0-.94-.28-1.242-1.197-1.243a5394 5394 0 0 0-14.572 0c-1.28.002-2.175.756-2.46 2.04C1.209 4.561.647 7.078.099 9.598c-.433 1.986.59 3.293 2.566 3.298 1.395.004 2.79.003 4.184.007.046 0 .092.028.188.06M9.024 1.93c1.588 0 3.176.017 4.764-.011.46-.008.607.106.601.602-.026 2.444-.05 4.889.01 7.331.02.8-.19 1.22-.91 1.554-2.215 1.025-3.41 2.798-3.458 5.328-.015.743-.335 1.21-.883 1.192-.647-.02-.884-.513-1.002-1.074-.301-1.419-.12-2.789.438-4.112.455-1.079.373-1.208-.8-1.21-1.685-.001-3.369.017-5.053-.005-.897-.012-1.162-.376-.972-1.255.541-2.52 1.096-5.038 1.632-7.56.123-.584.431-.8 1.014-.79 1.54.03 3.08.01 4.62.01zm7.05 4.18h.02V3.449c0-1.544 0-1.52 1.498-1.534.484-.005.61.145.605.622-.021 2.071-.01 4.143-.01 6.215 0 1.582 0 1.558-1.549 1.554-.5-.001-.585-.189-.575-.642.028-1.183.01-2.367.01-3.551"/></svg>