<svg xmlns="http://www.w3.org/2000/svg" width="32" height="19" fill="none"><path fill="#fff" fill-rule="evenodd" d="M31.088 1.32c.235-.745 0-1.286-1.04-1.286h-3.454c-.872 0-1.274.474-1.509.98 0 0-1.777 4.328-4.26 7.134-.804.812-1.173 1.082-1.609 1.082-.235 0-.537-.27-.537-1.014V1.284C18.68.406 18.411 0 17.673 0H12.24c-.537 0-.873.406-.873.811 0 .846 1.241 1.049 1.375 3.415v5.142c0 1.116-.198 1.32-.637 1.32-1.174 0-4.024-4.362-5.734-9.332C6.038.372 5.7 0 4.828 0H1.34C.334 0 .167.473.167.98c0 .913 1.173 5.511 5.466 11.596 2.85 4.157 6.909 6.39 10.564 6.39 2.214 0 2.482-.507 2.482-1.352V14.47c0-1.014.201-1.183.906-1.183.503 0 1.409.27 3.454 2.265C25.387 17.918 25.79 19 27.097 19h3.454c1.007 0 1.476-.507 1.208-1.488-.302-.98-1.442-2.4-2.918-4.09-.805-.946-2.012-1.994-2.381-2.502-.503-.676-.369-.946 0-1.555-.034 0 4.192-6.018 4.628-8.048" clip-rule="evenodd"/></svg>