<svg xmlns="http://www.w3.org/2000/svg" width="12" height="12" fill="none"><path fill="#fff" fill-rule="evenodd" d="M.05 5.947C.054.704 6.416-1.992 10.26 1.725l-.008.02A5.9 5.9 0 0 1 12 5.95c-.002 4.524-4.88 7.359-8.832 5.224L0 12l.848-3.08a5.9 5.9 0 0 1-.797-2.973m3.445 4.238c3.313 1.948 7.503-.435 7.506-4.252 0-1.32-.517-2.565-1.455-3.495A4.93 4.93 0 0 0 6.036.983c-3.906 0-6.275 4.29-4.213 7.573l.12.187-.503 1.822 1.875-.487zm5.254-2.994.005-.037.046.02c.124.056.206.092.239.152.037.068.037.36-.09.713-.125.352-.721.667-1.008.713a2.1 2.1 0 0 1-.94-.06c-1.322-.455-2.045-.782-3.402-2.558-.69-.973-.894-1.888-.087-2.775.185-.193.396-.197.684-.172h.028c.088-.004.2-.008.308.255.054.129.143.342.227.548.11.263.212.513.234.555.037.075.062.157.012.262-.118.223-.24.358-.331.459-.126.138-.193.212-.108.358.088.15.386.638.83 1.035.477.427.892.607 1.103.698l.099.045c.148.067.235.06.323-.038.086-.099.373-.433.472-.58.134-.203.245-.148 1.192.325z" clip-rule="evenodd"/></svg>