<svg xmlns="http://www.w3.org/2000/svg" width="22" height="22" fill="none"><path fill="#fff" fill-rule="evenodd" d="M.093 10.902C.097 1.29 11.762-3.652 18.81 3.162l-.014.036A10.8 10.8 0 0 1 22 10.908c-.004 8.295-8.947 13.492-16.193 9.578L0 22l1.555-5.648a10.85 10.85 0 0 1-1.462-5.45m6.315 7.77c6.074 3.572 13.755-.797 13.76-7.794 0-2.42-.947-4.704-2.666-6.408a9.04 9.04 0 0 0-6.436-2.667c-7.161 0-11.504 7.865-7.724 13.882l.22.344-.922 3.342 3.437-.894zm9.632-5.488.008-.068.085.037c.227.102.377.168.438.279.069.123.069.66-.165 1.306-.229.646-1.322 1.224-1.848 1.307-.472.068-1.07.097-1.724-.11-2.423-.833-3.749-1.433-6.237-4.689-1.266-1.783-1.639-3.46-.16-5.087.341-.354.727-.361 1.255-.315l.051-.002c.163-.006.367-.014.565.47.1.235.262.626.418 1.003.199.482.388.941.427 1.018.068.137.115.288.023.48a3.8 3.8 0 0 1-.608.841c-.23.254-.352.39-.197.657.162.275.708 1.17 1.522 1.898.874.783 1.635 1.112 2.021 1.28q.114.048.181.081c.273.124.432.11.593-.069.158-.181.684-.794.865-1.065.247-.37.45-.269 2.186.598z" clip-rule="evenodd"/></svg>