<svg xmlns="http://www.w3.org/2000/svg" width="32" height="22" fill="none"><path fill="#fff" d="M12.8 15.714 21.104 11 12.8 6.286zM31.296 3.41c.208.739.352 1.729.448 2.986a37 37 0 0 1 .16 3.284L32 11c0 3.441-.256 5.971-.704 7.59-.4 1.414-1.328 2.326-2.768 2.719-.752.204-2.128.345-4.24.44-2.08.11-3.984.157-5.744.157L16 22c-6.704 0-10.88-.251-12.528-.691-1.44-.393-2.368-1.305-2.768-2.719-.208-.739-.352-1.729-.448-2.986a37 37 0 0 1-.16-3.284L0 11c0-3.441.256-5.971.704-7.59.4-1.414 1.328-2.326 2.768-2.719C4.224.487 5.6.346 7.712.251c2.08-.11 3.984-.157 5.744-.157L16 0c6.704 0 10.88.251 12.528.691 1.44.393 2.368 1.305 2.768 2.719"/></svg>