<svg width="300" height="52" viewBox="0 0 300 52" fill="none" xmlns="http://www.w3.org/2000/svg">
<g clip-path="url(#clip0_120_1475)">
<path d="M29.2495 0.276367H60.6276C58.2942 4.4129 55.9424 8.4103 53.609 12.417H36.4421C35.3989 14.0308 34.557 15.7744 33.523 17.6016C34.6211 17.6016 35.5636 17.6201 36.497 17.6201C37.412 17.6201 38.3363 17.6201 39.2514 17.6201C40.203 17.6201 41.1547 17.6201 42.1064 17.6201H44.9615C45.8765 17.6201 46.8008 17.6201 47.7158 17.6201C48.6492 17.6201 49.5918 17.583 50.5343 17.6572C50.5343 17.8705 50.5709 17.9818 50.5343 18.056C48.3106 21.9607 46.087 25.8561 43.8542 29.77C43.5614 29.7886 27.0167 29.9184 26.5409 29.9184C22.4962 37.1527 18.4516 44.387 14.3978 51.6398H0.104249C0.104249 51.6398 0.0401931 51.5842 0.0218915 51.5656C0.00358989 51.5378 -0.00556089 51.4914 0.0035899 51.4729C9.75834 34.4074 19.5039 17.3419 29.2495 0.276367Z" fill="white"/>
<path d="M52.3833 34.7779C51.1663 33.1919 50.0499 31.745 48.906 30.2611C51.2578 26.0411 53.5821 21.8582 55.9796 17.5361C58.2764 21.3666 60.3903 25.1692 62.5773 28.9162C64.7552 32.6539 66.8965 36.4102 69.0561 40.1572C71.2248 43.932 73.3844 47.7161 75.6172 51.6115C70.7581 51.4724 66.0272 51.6764 61.3328 51.5466C60.3537 49.9606 59.4111 48.4488 58.4869 46.9463H36.9002C35.9119 48.4766 34.8961 50.0533 33.8255 51.7042C31.4829 51.7042 29.1311 51.7042 26.7794 51.7042C24.4917 51.7042 22.204 51.6764 19.7424 51.6579C22.991 45.9539 26.1846 40.4169 29.3874 34.8428C31.3273 34.7222 33.2216 34.8057 35.1158 34.7871C37.0191 34.7686 38.9225 34.7871 40.8167 34.7871C42.7201 34.7871 44.6234 34.7871 46.5177 34.7871C48.4119 34.7871 50.3061 34.7871 52.3833 34.7871V34.7779Z" fill="#FE0000"/>
<path d="M291.583 48.9346V40.9346H295.023C295.891 40.9346 296.573 41.1098 297.068 41.4603C297.564 41.8108 297.811 42.3212 297.811 42.9917C297.811 43.647 297.575 44.1498 297.103 44.5003C296.63 44.8431 296.009 45.0146 295.24 45.0146L295.446 44.6717C296.337 44.6717 297.019 44.8508 297.491 45.2089C297.971 45.5593 298.211 46.0736 298.211 46.7517C298.211 47.4374 297.96 47.9746 297.457 48.3631C296.962 48.7441 296.223 48.9346 295.24 48.9346H291.583ZM292.714 48.0317H295.217C295.827 48.0317 296.284 47.9212 296.588 47.7003C296.901 47.4717 297.057 47.125 297.057 46.6603C297.057 46.1955 296.901 45.8565 296.588 45.6431C296.284 45.4298 295.827 45.3231 295.217 45.3231H292.714V48.0317ZM292.714 44.4546H294.943C295.499 44.4546 295.922 44.3441 296.211 44.1231C296.508 43.9022 296.657 43.5784 296.657 43.1517C296.657 42.7174 296.508 42.3898 296.211 42.1689C295.922 41.9479 295.499 41.8374 294.943 41.8374H292.714V44.4546Z" fill="white"/>
<path d="M280.124 49.0256C279.514 49.0256 278.947 48.9228 278.421 48.7171C277.903 48.5113 277.453 48.2256 277.072 47.8599C276.691 47.4866 276.394 47.0523 276.181 46.5571C275.968 46.0618 275.861 45.5209 275.861 44.9342C275.861 44.3475 275.968 43.8066 276.181 43.3113C276.394 42.8161 276.691 42.3856 277.072 42.0199C277.453 41.6466 277.903 41.3571 278.421 41.1513C278.939 40.9456 279.507 40.8428 280.124 40.8428C280.733 40.8428 281.293 40.9456 281.804 41.1513C282.322 41.3494 282.771 41.6352 283.152 42.0085C283.541 42.3742 283.838 42.8047 284.044 43.2999C284.257 43.7952 284.364 44.3399 284.364 44.9342C284.364 45.5285 284.257 46.0732 284.044 46.5685C283.838 47.0637 283.541 47.498 283.152 47.8713C282.771 48.2371 282.322 48.5228 281.804 48.7285C281.293 48.9266 280.733 49.0256 280.124 49.0256ZM280.124 48.0085C280.566 48.0085 280.973 47.9323 281.347 47.7799C281.728 47.6275 282.055 47.4142 282.33 47.1399C282.611 46.858 282.829 46.5304 282.981 46.1571C283.141 45.7837 283.221 45.3761 283.221 44.9342C283.221 44.4923 283.141 44.0847 282.981 43.7113C282.829 43.338 282.611 43.0142 282.33 42.7399C282.055 42.458 281.728 42.2409 281.347 42.0885C280.973 41.9361 280.566 41.8599 280.124 41.8599C279.674 41.8599 279.259 41.9361 278.878 42.0885C278.505 42.2409 278.177 42.458 277.895 42.7399C277.613 43.0142 277.392 43.338 277.232 43.7113C277.08 44.0847 277.004 44.4923 277.004 44.9342C277.004 45.3761 277.08 45.7837 277.232 46.1571C277.392 46.5304 277.613 46.858 277.895 47.1399C278.177 47.4142 278.505 47.6275 278.878 47.7799C279.259 47.9323 279.674 48.0085 280.124 48.0085Z" fill="white"/>
<path d="M267.515 40.9346H268.657V48.9346H267.515V40.9346ZM262.92 48.9346H261.777V40.9346H262.92V48.9346ZM267.617 45.3689H262.806V44.3746H267.617V45.3689Z" fill="white"/>
<path d="M250.319 49.0256C249.709 49.0256 249.141 48.9228 248.616 48.7171C248.098 48.5113 247.648 48.2256 247.267 47.8599C246.886 47.4866 246.589 47.0523 246.376 46.5571C246.162 46.0618 246.056 45.5209 246.056 44.9342C246.056 44.3475 246.162 43.8066 246.376 43.3113C246.589 42.8161 246.886 42.3856 247.267 42.0199C247.648 41.6466 248.098 41.3571 248.616 41.1513C249.134 40.9456 249.701 40.8428 250.319 40.8428C250.928 40.8428 251.488 40.9456 251.999 41.1513C252.517 41.3494 252.966 41.6352 253.347 42.0085C253.736 42.3742 254.033 42.8047 254.239 43.2999C254.452 43.7952 254.559 44.3399 254.559 44.9342C254.559 45.5285 254.452 46.0732 254.239 46.5685C254.033 47.0637 253.736 47.498 253.347 47.8713C252.966 48.2371 252.517 48.5228 251.999 48.7285C251.488 48.9266 250.928 49.0256 250.319 49.0256ZM250.319 48.0085C250.76 48.0085 251.168 47.9323 251.541 47.7799C251.922 47.6275 252.25 47.4142 252.524 47.1399C252.806 46.858 253.023 46.5304 253.176 46.1571C253.336 45.7837 253.416 45.3761 253.416 44.9342C253.416 44.4923 253.336 44.0847 253.176 43.7113C253.023 43.338 252.806 43.0142 252.524 42.7399C252.25 42.458 251.922 42.2409 251.541 42.0885C251.168 41.9361 250.76 41.8599 250.319 41.8599C249.869 41.8599 249.454 41.9361 249.073 42.0885C248.699 42.2409 248.372 42.458 248.09 42.7399C247.808 43.0142 247.587 43.338 247.427 43.7113C247.275 44.0847 247.199 44.4923 247.199 44.9342C247.199 45.3761 247.275 45.7837 247.427 46.1571C247.587 46.5304 247.808 46.858 248.09 47.1399C248.372 47.4142 248.699 47.6275 249.073 47.7799C249.454 47.9323 249.869 48.0085 250.319 48.0085Z" fill="white"/>
<path d="M231.941 49.026C231.827 49.026 231.712 49.0184 231.598 49.0031C231.484 48.9879 231.358 48.965 231.221 48.9346L231.301 47.9174C231.423 47.9479 231.545 47.9631 231.667 47.9631C232.002 47.9631 232.268 47.8298 232.467 47.5631C232.665 47.2965 232.809 46.8927 232.901 46.3517C233 45.8108 233.065 45.1289 233.095 44.306L233.221 40.9346H238.855V48.9346H237.735V41.6317L238.009 41.9289H233.952L234.204 41.6203L234.112 44.2717C234.089 45.0641 234.036 45.7574 233.952 46.3517C233.868 46.946 233.743 47.4412 233.575 47.8374C233.407 48.2336 233.19 48.5308 232.924 48.7289C232.665 48.927 232.337 49.026 231.941 49.026Z" fill="white"/>
<path d="M217.177 48.9346L220.8 40.9346H221.932L225.566 48.9346H224.366L221.132 41.5746H221.589L218.355 48.9346H217.177ZM218.72 46.9346L219.029 46.0203H223.532L223.863 46.9346H218.72Z" fill="white"/>
<path d="M208.478 49.0256C207.869 49.0256 207.305 48.9266 206.787 48.7285C206.276 48.5228 205.831 48.2371 205.45 47.8713C205.076 47.498 204.783 47.0637 204.57 46.5685C204.356 46.0732 204.25 45.5285 204.25 44.9342C204.25 44.3399 204.356 43.7952 204.57 43.2999C204.783 42.8047 205.08 42.3742 205.461 42.0085C205.842 41.6352 206.288 41.3494 206.798 41.1513C207.316 40.9456 207.88 40.8428 208.49 40.8428C209.107 40.8428 209.674 40.9494 210.192 41.1628C210.718 41.3685 211.164 41.6771 211.53 42.0885L210.787 42.8085C210.482 42.4885 210.139 42.2523 209.758 42.0999C209.377 41.9399 208.97 41.8599 208.535 41.8599C208.086 41.8599 207.667 41.9361 207.278 42.0885C206.897 42.2409 206.566 42.4542 206.284 42.7285C206.002 43.0028 205.781 43.3304 205.621 43.7113C205.469 44.0847 205.392 44.4923 205.392 44.9342C205.392 45.3761 205.469 45.7875 205.621 46.1685C205.781 46.5418 206.002 46.8656 206.284 47.1399C206.566 47.4142 206.897 47.6275 207.278 47.7799C207.667 47.9323 208.086 48.0085 208.535 48.0085C208.97 48.0085 209.377 47.9323 209.758 47.7799C210.139 47.6199 210.482 47.3761 210.787 47.0485L211.53 47.7685C211.164 48.1799 210.718 48.4923 210.192 48.7056C209.674 48.919 209.103 49.0256 208.478 49.0256Z" fill="white"/>
<path d="M193.442 49.0256C192.833 49.0256 192.265 48.9228 191.739 48.7171C191.221 48.5113 190.772 48.2256 190.391 47.8599C190.01 47.4866 189.713 47.0523 189.499 46.5571C189.286 46.0618 189.179 45.5209 189.179 44.9342C189.179 44.3475 189.286 43.8066 189.499 43.3113C189.713 42.8161 190.01 42.3856 190.391 42.0199C190.772 41.6466 191.221 41.3571 191.739 41.1513C192.257 40.9456 192.825 40.8428 193.442 40.8428C194.052 40.8428 194.612 40.9456 195.122 41.1513C195.64 41.3494 196.09 41.6352 196.471 42.0085C196.859 42.3742 197.156 42.8047 197.362 43.2999C197.575 43.7952 197.682 44.3399 197.682 44.9342C197.682 45.5285 197.575 46.0732 197.362 46.5685C197.156 47.0637 196.859 47.498 196.471 47.8713C196.09 48.2371 195.64 48.5228 195.122 48.7285C194.612 48.9266 194.052 49.0256 193.442 49.0256ZM193.442 48.0085C193.884 48.0085 194.292 47.9323 194.665 47.7799C195.046 47.6275 195.373 47.4142 195.648 47.1399C195.93 46.858 196.147 46.5304 196.299 46.1571C196.459 45.7837 196.539 45.3761 196.539 44.9342C196.539 44.4923 196.459 44.0847 196.299 43.7113C196.147 43.338 195.93 43.0142 195.648 42.7399C195.373 42.458 195.046 42.2409 194.665 42.0885C194.292 41.9361 193.884 41.8599 193.442 41.8599C192.993 41.8599 192.577 41.9361 192.196 42.0885C191.823 42.2409 191.495 42.458 191.213 42.7399C190.932 43.0142 190.711 43.338 190.551 43.7113C190.398 44.0847 190.322 44.4923 190.322 44.9342C190.322 45.3761 190.398 45.7837 190.551 46.1571C190.711 46.5304 190.932 46.858 191.213 47.1399C191.495 47.4142 191.823 47.6275 192.196 47.7799C192.577 47.9323 192.993 48.0085 193.442 48.0085Z" fill="white"/>
<path d="M179.33 48.9346V41.6317L179.616 41.9289H176.599V40.9346H183.193V41.9289H180.176L180.45 41.6317V48.9346H179.33Z" fill="white"/>
<path d="M163.898 48.9346V40.9346H167.338C168.207 40.9346 168.889 41.1098 169.384 41.4603C169.879 41.8108 170.127 42.3212 170.127 42.9917C170.127 43.647 169.891 44.1498 169.418 44.5003C168.946 44.8431 168.325 45.0146 167.555 45.0146L167.761 44.6717C168.653 44.6717 169.335 44.8508 169.807 45.2089C170.287 45.5593 170.527 46.0736 170.527 46.7517C170.527 47.4374 170.275 47.9746 169.773 48.3631C169.277 48.7441 168.538 48.9346 167.555 48.9346H163.898ZM165.03 48.0317H167.533C168.142 48.0317 168.599 47.9212 168.904 47.7003C169.216 47.4717 169.373 47.125 169.373 46.6603C169.373 46.1955 169.216 45.8565 168.904 45.6431C168.599 45.4298 168.142 45.3231 167.533 45.3231H165.03V48.0317ZM165.03 44.4546H167.258C167.815 44.4546 168.237 44.3441 168.527 44.1231C168.824 43.9022 168.973 43.5784 168.973 43.1517C168.973 42.7174 168.824 42.3898 168.527 42.1689C168.237 41.9479 167.815 41.8374 167.258 41.8374H165.03V44.4546Z" fill="white"/>
<path d="M148.758 48.9346L152.381 40.9346H153.512L157.146 48.9346H155.946L152.712 41.5746H153.169L149.935 48.9346H148.758ZM150.301 46.9346L150.609 46.0203H155.112L155.443 46.9346H150.301Z" fill="white"/>
<path d="M131.415 43.7231C132.36 43.7231 133.088 43.9365 133.598 44.3631C134.109 44.7822 134.364 45.4108 134.364 46.2489C134.364 47.1327 134.086 47.8031 133.53 48.2603C132.981 48.7098 132.208 48.9346 131.21 48.9346H127.907V40.9346H129.038V43.7231H131.415ZM131.164 48.0317C131.827 48.0317 132.334 47.8831 132.684 47.586C133.042 47.2889 133.221 46.8508 133.221 46.2717C133.221 45.7079 133.046 45.2927 132.695 45.026C132.345 44.7593 131.834 44.626 131.164 44.626H129.038V48.0317H131.164Z" fill="white"/>
<path d="M117.284 48.9346V41.6317L117.569 41.9289H114.552V40.9346H121.146V41.9289H118.129L118.404 41.6317V48.9346H117.284Z" fill="white"/>
<path d="M103.717 44.386H107.832V45.3574H103.717V44.386ZM103.82 47.9403H108.483V48.9346H102.677V40.9346H108.323V41.9289H103.82V47.9403Z" fill="white"/>
<path d="M92.68 49.0256C92.0705 49.0256 91.5067 48.9266 90.9886 48.7285C90.4781 48.5228 90.0324 48.2371 89.6514 47.8713C89.2781 47.498 88.9847 47.0637 88.7714 46.5685C88.5581 46.0732 88.4514 45.5285 88.4514 44.9342C88.4514 44.3399 88.5581 43.7952 88.7714 43.2999C88.9847 42.8047 89.2819 42.3742 89.6628 42.0085C90.0438 41.6352 90.4895 41.3494 91 41.1513C91.5181 40.9456 92.0819 40.8428 92.6914 40.8428C93.3086 40.8428 93.8762 40.9494 94.3943 41.1628C94.92 41.3685 95.3657 41.6771 95.7314 42.0885L94.9886 42.8085C94.6838 42.4885 94.3409 42.2523 93.96 42.0999C93.579 41.9399 93.1714 41.8599 92.7371 41.8599C92.2876 41.8599 91.8686 41.9361 91.48 42.0885C91.099 42.2409 90.7676 42.4542 90.4857 42.7285C90.2038 43.0028 89.9828 43.3304 89.8228 43.7113C89.6705 44.0847 89.5943 44.4923 89.5943 44.9342C89.5943 45.3761 89.6705 45.7875 89.8228 46.1685C89.9828 46.5418 90.2038 46.8656 90.4857 47.1399C90.7676 47.4142 91.099 47.6275 91.48 47.7799C91.8686 47.9323 92.2876 48.0085 92.7371 48.0085C93.1714 48.0085 93.579 47.9323 93.96 47.7799C94.3409 47.6199 94.6838 47.3761 94.9886 47.0485L95.7314 47.7685C95.3657 48.1799 94.92 48.4923 94.3943 48.7056C93.8762 48.919 93.3047 49.0256 92.68 49.0256Z" fill="white"/>
<path d="M94.908 9.2103V17.3908H109.026V23.1492H94.908V34.419H87.8365V3.47656H110.904V9.23502H94.908V9.2103Z" fill="white"/>
<path d="M139.774 28.6605V34.419H116.146V3.47656H139.213V9.23502H123.168V15.9573H137.335V21.5181H123.168V28.6853H139.774V28.6605Z" fill="white"/>
<path d="M148.872 33.9486C146.628 33.2813 144.799 32.4163 143.434 31.3536L145.823 25.9658C147.14 26.9297 148.676 27.7206 150.481 28.3137C152.285 28.9068 154.09 29.2034 155.894 29.2034C157.894 29.2034 159.381 28.9068 160.332 28.289C161.283 27.6958 161.771 26.8803 161.771 25.8917C161.771 25.1502 161.478 24.5571 160.917 24.0628C160.356 23.5685 159.625 23.1978 158.747 22.9012C157.869 22.6047 156.65 22.2834 155.138 21.9374C152.822 21.3689 150.895 20.8252 149.432 20.2568C147.945 19.6884 146.677 18.7987 145.628 17.5629C144.556 16.3272 144.043 14.6714 144.043 12.6201C144.043 10.8159 144.531 9.18475 145.482 7.7266C146.433 6.26845 147.896 5.10687 149.822 4.26659C151.749 3.40158 154.114 2.98145 156.918 2.98145C158.869 2.98145 160.771 3.20388 162.624 3.69816C164.477 4.16774 166.111 4.83503 167.501 5.72474L165.331 11.1619C162.502 9.53075 159.698 8.7399 156.87 8.7399C154.894 8.7399 153.431 9.06119 152.48 9.70376C151.529 10.3463 151.066 11.2113 151.066 12.2741C151.066 13.3368 151.603 14.1276 152.7 14.6466C153.797 15.1656 155.455 15.6599 157.699 16.1789C160.015 16.7474 161.917 17.2911 163.404 17.8595C164.892 18.4279 166.16 19.2929 167.233 20.5039C168.281 21.7149 168.818 23.3461 168.818 25.4221C168.818 27.2016 168.33 28.808 167.355 30.2661C166.379 31.7243 164.916 32.8858 162.966 33.7261C161.015 34.5664 158.65 35.0113 155.87 35.0113C153.456 35.0113 151.115 34.69 148.872 34.0227V33.9486Z" fill="white"/>
<path d="M194.202 27.7946H180.035L177.328 34.418H170.086L183.692 3.47559H190.666L204.321 34.418H196.909L194.202 27.7946ZM191.983 22.3574L187.13 10.5192L182.278 22.3574H191.959H191.983Z" fill="#FE0000"/>
<path d="M210.686 31.2793C208.248 28.8326 207.053 25.3478 207.053 20.8004V3.47559H214.125V20.5285C214.125 26.0645 216.392 28.8326 220.928 28.8326C223.147 28.8326 224.829 28.1653 226 26.8307C227.17 25.4961 227.755 23.3954 227.755 20.5285V3.47559H234.729V20.8004C234.729 25.3478 233.51 28.8326 231.096 31.2793C228.658 33.726 225.268 34.937 220.903 34.937C216.539 34.937 213.149 33.7013 210.711 31.2793H210.686Z" fill="#FE0000"/>
<path d="M247.892 9.30818H238.114V3.47559H264.717V9.30818H254.939V34.418H247.867V9.30818H247.892Z" fill="#FE0000"/>
<path d="M274.738 32.8601C272.202 31.4761 270.202 29.5731 268.764 27.1263C267.325 24.7043 266.594 21.961 266.594 18.9212C266.594 15.8813 267.301 13.1627 268.764 10.716C270.202 8.29398 272.202 6.36626 274.738 4.98225C277.274 3.59824 280.127 2.90625 283.297 2.90625C286.467 2.90625 289.32 3.59824 291.856 4.98225C294.392 6.36626 296.367 8.26926 297.83 10.716C299.293 13.138 300 15.8813 300 18.9212C300 21.961 299.268 24.6796 297.83 27.1263C296.367 29.5484 294.392 31.4761 291.856 32.8601C289.32 34.2441 286.467 34.9361 283.297 34.9361C280.127 34.9361 277.274 34.2441 274.738 32.8601ZM288.198 27.5712C289.661 26.7309 290.783 25.5693 291.612 24.0618C292.441 22.5542 292.855 20.8489 292.855 18.9459C292.855 17.0429 292.441 15.3129 291.612 13.8053C290.783 12.2977 289.637 11.1361 288.198 10.2958C286.735 9.45556 285.126 9.03541 283.321 9.03541C281.517 9.03541 279.883 9.45556 278.444 10.2958C276.981 11.1361 275.86 12.2977 275.031 13.8053C274.201 15.3129 273.787 17.0182 273.787 18.9459C273.787 20.8736 274.201 22.5789 275.031 24.0618C275.86 25.5693 277.006 26.7309 278.444 27.5712C279.907 28.4115 281.517 28.8316 283.321 28.8316C285.126 28.8316 286.759 28.4115 288.198 27.5712Z" fill="#FE0000"/>
</g>
<defs>
<clipPath id="clip0_120_1475">
<rect width="300" height="51.4286" fill="white"/>
</clipPath>
</defs>
</svg>
