<svg width="342" height="59" viewBox="0 0 342 59" fill="none" xmlns="http://www.w3.org/2000/svg">
<g clip-path="url(#clip0_120_513)">
<path d="M33.3445 0.314285H69.1155C66.4553 5.02993 63.7743 9.58697 61.1142 14.1546H41.5439C40.3547 15.9943 39.395 17.9821 38.2162 20.065C39.468 20.065 40.5425 20.0862 41.6065 20.0862C42.6497 20.0862 43.7034 20.0862 44.7465 20.0862C45.8315 20.0862 46.9164 20.0862 48.0013 20.0862H51.2561C52.2992 20.0862 53.3529 20.0862 54.3961 20.0862C55.4601 20.0862 56.5346 20.0439 57.6091 20.1284C57.6091 20.3716 57.6508 20.4985 57.6091 20.5831C55.0741 25.0344 52.5392 29.4751 49.9938 33.937C49.66 33.9582 30.7991 34.1062 30.2566 34.1062C25.6457 42.3533 21.0348 50.6004 16.4135 58.8686H0.118843C0.118843 58.8686 0.0458201 58.8052 0.0249563 58.784C0.00409247 58.7523 -0.00633942 58.6994 0.00409249 58.6783C11.1245 39.2236 22.2345 19.769 33.3445 0.314285Z" fill="black"/>
<path d="M59.717 39.6468C58.3295 37.8388 57.0568 36.1894 55.7528 34.4977C58.4338 29.6868 61.0835 24.9183 63.8167 19.9912C66.4351 24.358 68.8449 28.693 71.3381 32.9645C73.8209 37.2255 76.262 41.5077 78.7239 45.7792C81.1963 50.0825 83.6582 54.3964 86.2036 58.8371C80.6642 58.6785 75.2709 58.9112 69.9194 58.7631C68.8032 56.9551 67.7287 55.2317 66.675 53.5188H42.0662C40.9395 55.2634 39.7816 57.0608 38.5611 58.9429C35.8905 58.9429 33.2095 58.9429 30.5285 58.9429C27.9205 58.9429 25.3125 58.9112 22.5063 58.89C26.2097 52.3875 29.8504 46.0753 33.5016 39.7208C35.7131 39.5834 37.8725 39.6785 40.0319 39.6574C42.2018 39.6362 44.3716 39.6574 46.531 39.6574C48.7009 39.6574 50.8707 39.6574 53.0301 39.6574C55.1895 39.6574 57.3489 39.6574 59.717 39.6574V39.6468Z" fill="#FE0000"/>
<path d="M332.404 55.7853V46.6653H336.326C337.316 46.6653 338.093 46.8651 338.658 47.2646C339.223 47.6642 339.505 48.2461 339.505 49.0105C339.505 49.7574 339.236 50.3307 338.697 50.7302C338.159 51.1211 337.451 51.3165 336.573 51.3165L336.808 50.9257C337.824 50.9257 338.602 51.1298 339.14 51.538C339.687 51.9376 339.961 52.5238 339.961 53.2969C339.961 54.0786 339.674 54.6909 339.101 55.1339C338.536 55.5682 337.694 55.7853 336.573 55.7853H332.404ZM333.694 54.7561H336.547C337.242 54.7561 337.763 54.6301 338.111 54.3782C338.467 54.1177 338.645 53.7225 338.645 53.1926C338.645 52.6628 338.467 52.2763 338.111 52.0331C337.763 51.7899 337.242 51.6683 336.547 51.6683H333.694V54.7561ZM333.694 50.6781H336.235C336.869 50.6781 337.351 50.5522 337.681 50.3003C338.02 50.0484 338.189 49.6793 338.189 49.1929C338.189 48.6978 338.02 48.3243 337.681 48.0724C337.351 47.8205 336.869 47.6946 336.235 47.6946H333.694V50.6781Z" fill="black"/>
<path d="M319.341 55.8896C318.646 55.8896 317.999 55.7723 317.4 55.5378C316.809 55.3033 316.297 54.9776 315.862 54.5606C315.428 54.135 315.089 53.64 314.846 53.0754C314.603 52.5108 314.481 51.8941 314.481 51.2253C314.481 50.5565 314.603 49.9398 314.846 49.3753C315.089 48.8107 315.428 48.32 315.862 47.903C316.297 47.4774 316.809 47.1474 317.4 46.9129C317.99 46.6784 318.638 46.5611 319.341 46.5611C320.036 46.5611 320.674 46.6784 321.256 46.9129C321.847 47.1387 322.359 47.4644 322.794 47.89C323.237 48.3069 323.575 48.7977 323.81 49.3622C324.053 49.9268 324.175 50.5478 324.175 51.2253C324.175 51.9028 324.053 52.5238 323.81 53.0884C323.575 53.653 323.237 54.1481 322.794 54.5737C322.359 54.9906 321.847 55.3163 321.256 55.5508C320.674 55.7766 320.036 55.8896 319.341 55.8896ZM319.341 54.73C319.845 54.73 320.31 54.6432 320.735 54.4694C321.169 54.2957 321.543 54.0525 321.856 53.7398C322.177 53.4185 322.425 53.045 322.598 52.6194C322.781 52.1938 322.872 51.7291 322.872 51.2253C322.872 50.7216 322.781 50.2569 322.598 49.8313C322.425 49.4057 322.177 49.0365 321.856 48.7238C321.543 48.4025 321.169 48.1549 320.735 47.9812C320.31 47.8075 319.845 47.7206 319.341 47.7206C318.829 47.7206 318.355 47.8075 317.921 47.9812C317.495 48.1549 317.122 48.4025 316.801 48.7238C316.479 49.0365 316.227 49.4057 316.045 49.8313C315.871 50.2569 315.784 50.7216 315.784 51.2253C315.784 51.7291 315.871 52.1938 316.045 52.6194C316.227 53.045 316.479 53.4185 316.801 53.7398C317.122 54.0525 317.495 54.2957 317.921 54.4694C318.355 54.6432 318.829 54.73 319.341 54.73Z" fill="black"/>
<path d="M304.967 46.6653H306.269V55.7853H304.967V46.6653ZM299.729 55.7853H298.426V46.6653H299.729V55.7853ZM305.084 51.7204H299.599V50.5869H305.084V51.7204Z" fill="black"/>
<path d="M285.363 55.8896C284.668 55.8896 284.021 55.7723 283.422 55.5378C282.831 55.3033 282.319 54.9776 281.884 54.5606C281.45 54.135 281.111 53.64 280.868 53.0754C280.625 52.5108 280.503 51.8941 280.503 51.2253C280.503 50.5565 280.625 49.9398 280.868 49.3753C281.111 48.8107 281.45 48.32 281.884 47.903C282.319 47.4774 282.831 47.1474 283.422 46.9129C284.012 46.6784 284.66 46.5611 285.363 46.5611C286.058 46.5611 286.696 46.6784 287.278 46.9129C287.869 47.1387 288.381 47.4644 288.816 47.89C289.259 48.3069 289.597 48.7977 289.832 49.3622C290.075 49.9268 290.197 50.5478 290.197 51.2253C290.197 51.9028 290.075 52.5238 289.832 53.0884C289.597 53.653 289.259 54.1481 288.816 54.5737C288.381 54.9906 287.869 55.3163 287.278 55.5508C286.696 55.7766 286.058 55.8896 285.363 55.8896ZM285.363 54.73C285.867 54.73 286.332 54.6432 286.757 54.4694C287.191 54.2957 287.565 54.0525 287.878 53.7398C288.199 53.4185 288.446 53.045 288.62 52.6194C288.803 52.1938 288.894 51.7291 288.894 51.2253C288.894 50.7216 288.803 50.2569 288.62 49.8313C288.446 49.4057 288.199 49.0365 287.878 48.7238C287.565 48.4025 287.191 48.1549 286.757 47.9812C286.332 47.8075 285.867 47.7206 285.363 47.7206C284.851 47.7206 284.377 47.8075 283.943 47.9812C283.517 48.1549 283.144 48.4025 282.822 48.7238C282.501 49.0365 282.249 49.4057 282.067 49.8313C281.893 50.2569 281.806 50.7216 281.806 51.2253C281.806 51.7291 281.893 52.1938 282.067 52.6194C282.249 53.045 282.501 53.4185 282.822 53.7398C283.144 54.0525 283.517 54.2957 283.943 54.4694C284.377 54.6432 284.851 54.73 285.363 54.73Z" fill="black"/>
<path d="M264.413 55.8896C264.282 55.8896 264.152 55.8809 264.022 55.8635C263.891 55.8461 263.748 55.8201 263.592 55.7853L263.683 54.6258C263.822 54.6605 263.961 54.6779 264.1 54.6779C264.482 54.6779 264.786 54.5259 265.012 54.2219C265.238 53.9179 265.403 53.4576 265.507 52.8409C265.62 52.2242 265.694 51.4468 265.728 50.5088L265.872 46.6653H272.295V55.7853H271.018V47.4601L271.331 47.7988H266.706L266.992 47.447L266.888 50.4697C266.862 51.373 266.801 52.1634 266.706 52.8409C266.61 53.5184 266.467 54.0829 266.276 54.5346C266.085 54.9862 265.837 55.325 265.533 55.5508C265.238 55.7766 264.864 55.8896 264.413 55.8896Z" fill="black"/>
<path d="M247.582 55.7853L251.712 46.6653H253.002L257.145 55.7853H255.777L252.09 47.3949H252.611L248.924 55.7853H247.582ZM249.341 53.5053L249.693 52.463H254.826L255.204 53.5053H249.341Z" fill="black"/>
<path d="M237.665 55.8896C236.97 55.8896 236.328 55.7766 235.737 55.5508C235.155 55.3163 234.647 54.9906 234.213 54.5737C233.787 54.1481 233.453 53.653 233.209 53.0884C232.966 52.5238 232.845 51.9028 232.845 51.2253C232.845 50.5478 232.966 49.9268 233.209 49.3622C233.453 48.7977 233.791 48.3069 234.226 47.89C234.66 47.4644 235.168 47.1387 235.75 46.9129C236.341 46.6784 236.983 46.5611 237.678 46.5611C238.382 46.5611 239.029 46.6827 239.619 46.9259C240.219 47.1604 240.727 47.5122 241.144 47.9812L240.297 48.802C239.95 48.4372 239.559 48.168 239.124 47.9942C238.69 47.8118 238.225 47.7206 237.73 47.7206C237.218 47.7206 236.74 47.8075 236.297 47.9812C235.863 48.1549 235.485 48.3981 235.164 48.7108C234.842 49.0235 234.59 49.397 234.408 49.8313C234.234 50.2569 234.147 50.7216 234.147 51.2253C234.147 51.7291 234.234 52.1981 234.408 52.6324C234.59 53.058 234.842 53.4272 235.164 53.7398C235.485 54.0525 235.863 54.2957 236.297 54.4694C236.74 54.6432 237.218 54.73 237.73 54.73C238.225 54.73 238.69 54.6432 239.124 54.4694C239.559 54.287 239.95 54.0091 240.297 53.6356L241.144 54.4564C240.727 54.9254 240.219 55.2816 239.619 55.5248C239.029 55.768 238.377 55.8896 237.665 55.8896Z" fill="black"/>
<path d="M220.524 55.8896C219.829 55.8896 219.182 55.7723 218.583 55.5378C217.992 55.3033 217.48 54.9776 217.045 54.5606C216.611 54.135 216.272 53.64 216.029 53.0754C215.786 52.5108 215.664 51.8941 215.664 51.2253C215.664 50.5565 215.786 49.9398 216.029 49.3753C216.272 48.8107 216.611 48.32 217.045 47.903C217.48 47.4774 217.992 47.1474 218.583 46.9129C219.173 46.6784 219.82 46.5611 220.524 46.5611C221.219 46.5611 221.857 46.6784 222.439 46.9129C223.03 47.1387 223.542 47.4644 223.977 47.89C224.42 48.3069 224.758 48.7977 224.993 49.3622C225.236 49.9268 225.358 50.5478 225.358 51.2253C225.358 51.9028 225.236 52.5238 224.993 53.0884C224.758 53.653 224.42 54.1481 223.977 54.5737C223.542 54.9906 223.03 55.3163 222.439 55.5508C221.857 55.7766 221.219 55.8896 220.524 55.8896ZM220.524 54.73C221.028 54.73 221.492 54.6432 221.918 54.4694C222.352 54.2957 222.726 54.0525 223.038 53.7398C223.36 53.4185 223.607 53.045 223.781 52.6194C223.964 52.1938 224.055 51.7291 224.055 51.2253C224.055 50.7216 223.964 50.2569 223.781 49.8313C223.607 49.4057 223.36 49.0365 223.038 48.7238C222.726 48.4025 222.352 48.1549 221.918 47.9812C221.492 47.8075 221.028 47.7206 220.524 47.7206C220.012 47.7206 219.538 47.8075 219.104 47.9812C218.678 48.1549 218.305 48.4025 217.983 48.7238C217.662 49.0365 217.41 49.4057 217.228 49.8313C217.054 50.2569 216.967 50.7216 216.967 51.2253C216.967 51.7291 217.054 52.1938 217.228 52.6194C217.41 53.045 217.662 53.4185 217.983 53.7398C218.305 54.0525 218.678 54.2957 219.104 54.4694C219.538 54.6432 220.012 54.73 220.524 54.73Z" fill="black"/>
<path d="M204.437 55.7853V47.4601L204.762 47.7988H201.323V46.6653H208.84V47.7988H205.401L205.714 47.4601V55.7853H204.437Z" fill="black"/>
<path d="M186.844 55.7853V46.6653H190.766C191.756 46.6653 192.533 46.8651 193.098 47.2646C193.662 47.6642 193.945 48.2461 193.945 49.0105C193.945 49.7574 193.675 50.3307 193.137 50.7302C192.598 51.1211 191.891 51.3165 191.013 51.3165L191.248 50.9257C192.264 50.9257 193.041 51.1298 193.58 51.538C194.127 51.9376 194.401 52.5238 194.401 53.2969C194.401 54.0786 194.114 54.6909 193.541 55.1339C192.976 55.5682 192.134 55.7853 191.013 55.7853H186.844ZM188.134 54.7561H190.987C191.682 54.7561 192.203 54.6301 192.551 54.3782C192.907 54.1177 193.085 53.7225 193.085 53.1926C193.085 52.6628 192.907 52.2763 192.551 52.0331C192.203 51.7899 191.682 51.6683 190.987 51.6683H188.134V54.7561ZM188.134 50.6781H190.675C191.309 50.6781 191.791 50.5522 192.121 50.3003C192.459 50.0484 192.629 49.6793 192.629 49.1929C192.629 48.6978 192.459 48.3243 192.121 48.0724C191.791 47.8205 191.309 47.6946 190.675 47.6946H188.134V50.6781Z" fill="black"/>
<path d="M169.584 55.7853L173.714 46.6653H175.004L179.147 55.7853H177.779L174.092 47.3949H174.613L170.926 55.7853H169.584ZM171.343 53.5053L171.694 52.463H176.828L177.205 53.5053H171.343Z" fill="black"/>
<path d="M149.814 49.8443C150.891 49.8443 151.72 50.0875 152.302 50.5739C152.884 51.0516 153.175 51.7682 153.175 52.7236C153.175 53.7312 152.858 54.4955 152.224 55.0166C151.599 55.5291 150.717 55.7853 149.579 55.7853H145.814V46.6653H147.104V49.8443H149.814ZM149.527 54.7561C150.283 54.7561 150.86 54.5867 151.26 54.248C151.668 53.9092 151.872 53.4098 151.872 52.7497C151.872 52.1069 151.672 51.6336 151.273 51.3296C150.873 51.0256 150.291 50.8736 149.527 50.8736H147.104V54.7561H149.527Z" fill="black"/>
<path d="M133.703 55.7853V47.4601L134.029 47.7988H130.589V46.6653H138.107V47.7988H134.667L134.98 47.4601V55.7853H133.703Z" fill="black"/>
<path d="M118.238 50.6H122.928V51.7074H118.238V50.6ZM118.355 54.6518H123.671V55.7853H117.052V46.6653H123.488V47.7988H118.355V54.6518Z" fill="black"/>
<path d="M105.655 55.8896C104.96 55.8896 104.318 55.7766 103.727 55.5508C103.145 55.3163 102.637 54.9906 102.203 54.5737C101.777 54.1481 101.443 53.653 101.199 53.0884C100.956 52.5238 100.835 51.9028 100.835 51.2253C100.835 50.5478 100.956 49.9268 101.199 49.3622C101.443 48.7977 101.781 48.3069 102.216 47.89C102.65 47.4644 103.158 47.1387 103.74 46.9129C104.331 46.6784 104.973 46.5611 105.668 46.5611C106.372 46.5611 107.019 46.6827 107.609 46.9259C108.209 47.1604 108.717 47.5122 109.134 47.9812L108.287 48.802C107.94 48.4372 107.549 48.168 107.114 47.9942C106.68 47.8118 106.215 47.7206 105.72 47.7206C105.208 47.7206 104.73 47.8075 104.287 47.9812C103.853 48.1549 103.475 48.3981 103.154 48.7108C102.832 49.0235 102.58 49.397 102.398 49.8313C102.224 50.2569 102.137 50.7216 102.137 51.2253C102.137 51.7291 102.224 52.1981 102.398 52.6324C102.58 53.058 102.832 53.4272 103.154 53.7398C103.475 54.0525 103.853 54.2957 104.287 54.4694C104.73 54.6432 105.208 54.73 105.72 54.73C106.215 54.73 106.68 54.6432 107.114 54.4694C107.549 54.287 107.94 54.0091 108.287 53.6356L109.134 54.4564C108.717 54.9254 108.209 55.2816 107.609 55.5248C107.019 55.768 106.367 55.8896 105.655 55.8896Z" fill="black"/>
<path d="M108.195 10.5004V19.8261H124.29V26.3908H108.195V39.2383H100.134V3.96394H126.431V10.5286H108.195V10.5004Z" fill="black"/>
<path d="M159.342 32.6737V39.2383H132.406V3.96394H158.703V10.5286H140.412V18.192H156.562V24.5313H140.412V32.7018H159.342V32.6737Z" fill="black"/>
<path d="M169.713 38.702C167.156 37.9413 165.071 36.9552 163.515 35.7437L166.239 29.6017C167.74 30.7005 169.491 31.602 171.548 32.2782C173.605 32.9544 175.662 33.2925 177.719 33.2925C179.999 33.2925 181.694 32.9544 182.778 32.2501C183.863 31.5739 184.419 30.6441 184.419 29.5171C184.419 28.6719 184.085 27.9957 183.446 27.4322C182.806 26.8687 181.972 26.4461 180.972 26.108C179.971 25.7699 178.581 25.4037 176.858 25.0092C174.217 24.3612 172.021 23.7414 170.353 23.0934C168.657 22.4454 167.212 21.4311 166.016 20.0224C164.793 18.6136 164.209 16.726 164.209 14.3875C164.209 12.3308 164.765 10.4712 165.85 8.80894C166.934 7.14665 168.602 5.82245 170.798 4.86452C172.994 3.87842 175.69 3.39946 178.887 3.39946C181.111 3.39946 183.279 3.65304 185.392 4.21652C187.504 4.75184 189.367 5.51255 190.951 6.52682L188.477 12.7252C185.253 10.8657 182.056 9.96411 178.831 9.96411C176.58 9.96411 174.912 10.3304 173.828 11.0629C172.743 11.7954 172.215 12.7815 172.215 13.993C172.215 15.2045 172.827 16.1061 174.078 16.6978C175.329 17.2894 177.219 17.8529 179.776 18.4446C182.417 19.0926 184.585 19.7124 186.281 20.3604C187.977 21.0085 189.422 21.9946 190.645 23.3751C191.841 24.7557 192.452 26.6152 192.452 28.9818C192.452 31.0104 191.896 32.8417 190.784 34.504C189.672 36.1663 188.005 37.4905 185.781 38.4484C183.557 39.4063 180.86 39.9135 177.691 39.9135C174.939 39.9135 172.271 39.5472 169.713 38.7865V38.702Z" fill="black"/>
<path d="M221.39 31.6871H205.24L202.154 39.2378H193.898L209.409 3.96346H217.36L232.926 39.2378H224.476L221.39 31.6871ZM218.861 25.4887L213.329 11.9932L207.797 25.4887H218.833H218.861Z" fill="#FE0000"/>
<path d="M240.183 35.6597C237.403 32.8704 236.041 28.8978 236.041 23.7137V3.96346H244.102V23.4038C244.102 29.7149 246.687 32.8704 251.858 32.8704C254.387 32.8704 256.305 32.1097 257.64 30.5883C258.974 29.0669 259.641 26.672 259.641 23.4038V3.96346H267.591V23.7137C267.591 28.8978 266.202 32.8704 263.45 35.6597C260.67 38.4489 256.806 39.8295 251.83 39.8295C246.854 39.8295 242.99 38.4208 240.21 35.6597H240.183Z" fill="#FE0000"/>
<path d="M282.597 10.6126H271.45V3.96346H301.777V10.6126H290.63V39.2378H282.569V10.6126H282.597Z" fill="#FE0000"/>
<path d="M313.201 37.4616C310.31 35.8839 308.031 33.7145 306.391 30.9252C304.751 28.1641 303.917 25.0367 303.917 21.5713C303.917 18.1058 304.723 15.0066 306.391 12.2174C308.031 9.45629 310.31 7.25868 313.201 5.68092C316.092 4.10315 319.345 3.31428 322.958 3.31428C326.572 3.31428 329.825 4.10315 332.716 5.68092C335.607 7.25868 337.858 9.42811 339.526 12.2174C341.194 14.9785 342 18.1058 342 21.5713C342 25.0367 341.166 28.1359 339.526 30.9252C337.858 33.6863 335.607 35.8839 332.716 37.4616C329.825 39.0394 326.572 39.8283 322.958 39.8283C319.345 39.8283 316.092 39.0394 313.201 37.4616ZM328.546 31.4323C330.214 30.4744 331.492 29.1502 332.438 27.4316C333.383 25.7129 333.855 23.7689 333.855 21.5995C333.855 19.43 333.383 17.4578 332.438 15.7392C331.492 14.0205 330.186 12.6963 328.546 11.7384C326.878 10.7805 325.043 10.3015 322.986 10.3015C320.929 10.3015 319.067 10.7805 317.427 11.7384C315.759 12.6963 314.48 14.0205 313.535 15.7392C312.59 17.4578 312.117 19.4019 312.117 21.5995C312.117 23.7971 312.59 25.7411 313.535 27.4316C314.48 29.1502 315.787 30.4744 317.427 31.4323C319.095 32.3903 320.929 32.8692 322.986 32.8692C325.043 32.8692 326.906 32.3903 328.546 31.4323Z" fill="#FE0000"/>
</g>
<defs>
<clipPath id="clip0_120_513">
<rect width="342" height="58.6286" fill="white"/>
</clipPath>
</defs>
</svg>
